<?xml version="1.0" standalone="no"?>
<!DOCTYPE svg PUBLIC "-//W3C//DTD SVG 1.1//EN" "http://www.w3.org/Graphics/SVG/1.1/DTD/svg11.dtd" >
<svg>
<metadata>
Created by FontForge 20120731 at Fri Sep  2 13:54:46 2016
 By ,,,
Copyright 1985-1994 Adobe Systems Inc.
</metadata>
<defs>
<font id="Myriad-Bold" horiz-adv-x="1137" >
  <font-face 
    font-family="Myriad Roman"
    font-weight="700"
    font-stretch="normal"
    units-per-em="2048"
    panose-1="2 11 8 0 0 0 0 0 0 0"
    ascent="1638"
    descent="-410"
    x-height="1001"
    cap-height="1380"
    bbox="-80 -512 2572 1743"
    underline-thickness="102"
    underline-position="-154"
    unicode-range="U+0020-F002"
  />
    <missing-glyph />
    <glyph glyph-name="two" horiz-adv-x="0" 
 />
    <glyph glyph-name="glyph1" horiz-adv-x="0" 
 />
    <glyph glyph-name="equal" unicode=" " horiz-adv-x="414" 
 />
    <glyph glyph-name="uni00A0" unicode="&#xa0;" horiz-adv-x="414" 
 />
    <glyph glyph-name="greater" unicode="!" horiz-adv-x="549" 
d="M391 453l45 927h-323l45 -927h233zM274 -23q84 3 136 56q47 51 47 131q-2 84 -49 135q-50 51 -134 51q-79 0 -131 -51q-53 -51 -53 -135q0 -80 51 -131q51 -53 131 -56h2z" />
    <glyph glyph-name="question" unicode="&#x22;" horiz-adv-x="813" 
d="M74 1417l45 -555h184l45 555h-274zM467 1417l45 -555h184l45 555h-274z" />
    <glyph glyph-name="at" unicode="#" horiz-adv-x="1126" 
d="M457 555l32 231h187l-31 -231h-188zM375 0l51 367h186l-53 -367h184l52 367h200v188h-168l31 231h195v189h-164l51 356h-182l-51 -356h-189l51 356h-180l-53 -356h-201v-189h172l-33 -231h-198v-188h168l-54 -367h185z" />
    <glyph glyph-name="A" unicode="$" 
d="M661 -178v211q181 33 273 137q92 102 92 240q0 141 -78 231q-82 90 -264 154q-129 47 -186 88q-60 39 -60 86q0 45 41 82q39 32 135 34q111 -2 185 -24q73 -27 110 -47l62 231q-52 27 -123 45q-72 19 -176 23v180h-201v-195q-342 -75 -346 -364q2 -146 104 -234
q99 -88 265 -141q221 -70 219 -178q-2 -57 -56 -92q-53 -35 -143 -35q-205 4 -340 90v0l-61 -240q129 -71 348 -86v-196h200z" />
    <glyph glyph-name="B" unicode="%" horiz-adv-x="1802" 
d="M428 1354q-170 -2 -270 -119q-103 -117 -103 -299q2 -189 107 -293q102 -109 256 -109q149 0 258 109q108 109 110 313q0 176 -90 287q-92 109 -266 111h-2zM424 1184q72 -2 104 -68q29 -67 29 -172q0 -115 -31 -176q-32 -66 -100 -66t-102 70q-35 64 -35 170
q0 104 33 172q32 68 100 70h2zM1386 801q-170 -2 -268 -117q-102 -117 -102 -299q2 -188 106 -295q101 -106 254 -108q150 0 258 108q109 109 111 318q0 176 -90 282q-92 109 -267 111h-2zM1384 633q70 -2 103 -68q28 -67 28 -172q0 -114 -30 -176q-33 -65 -101 -65
q-65 0 -100 69q-35 64 -35 170q0 105 33 172q33 68 100 70h2zM600 -23l764 1375h-166l-766 -1375h168z" />
    <glyph glyph-name="C" unicode="&#x26;" horiz-adv-x="1388" 
d="M1376 0q-127 139 -244 270q181 209 230 525h-279q-30 -195 -116 -336v0q-107 114 -230 258v8q275 145 273 354q-2 154 -105 238q-104 84 -268 86q-207 -4 -311 -115q-105 -110 -105 -250q0 -73 31 -143q29 -72 74 -123v-6q-256 -125 -263 -397q-2 -152 117 -269
q117 -118 365 -123q245 5 379 121v0q49 -53 90 -98h362zM588 203q-109 0 -168 65q-64 62 -64 152q0 67 35 114q33 46 76 76v0q176 -200 311 -338q-65 -67 -188 -69h-2zM627 1208q61 -2 92 -43q28 -43 28 -94q0 -57 -36 -104q-37 -48 -115 -99v0q-94 99 -94 199q0 57 32 100
q31 39 91 41h2z" />
    <glyph glyph-name="Ucircumflex" unicode="&#x2019;" horiz-adv-x="532" 
d="M197 1399q-48 -279 -144 -553l189 18q145 244 245 553z" />
    <glyph glyph-name="E" unicode="(" horiz-adv-x="643" 
d="M356 1415q-84 -119 -155 -323q-72 -205 -78 -506q2 -295 78 -500q71 -205 155 -326h217q-198 287 -206 826q8 549 206 829h-217z" />
    <glyph glyph-name="F" unicode=")" horiz-adv-x="643" 
d="M289 -240q86 123 157 328q72 203 76 500q-2 301 -74 506q-71 204 -159 321h-217q90 -141 147 -346t60 -479q-9 -543 -207 -830h217z" />
    <glyph glyph-name="G" unicode="*" horiz-adv-x="930" 
d="M584 1403v0l-119 -316h-4l-113 316v0l-182 -105l215 -260v-4l-320 66v0v-207v0l322 57l2 -4l-219 -256l176 -104v0l117 313l4 2l119 -315v0l180 104l-221 254v4l329 -55v0v207v0l-327 -66v4l219 262z" />
    <glyph glyph-name="H" unicode="+" horiz-adv-x="1221" 
d="M510 1089v-446h-428v-190h428v-453h201v453h428v190h-428v446h-201z" />
    <glyph glyph-name="I" unicode="," horiz-adv-x="532" 
d="M211 -225q151 256 258 583l-317 -20q-48 -293 -150 -582z" />
    <glyph glyph-name="J" unicode="-" horiz-adv-x="659" 
d="M61 641v-207h537v207h-537z" />
    <glyph glyph-name="uni00AD" unicode="&#xad;" horiz-adv-x="659" 
d="M61 641v-207h537v207h-537z" />
    <glyph glyph-name="K" unicode="." horiz-adv-x="532" 
d="M285 -23q84 3 135 56q47 51 49 133q0 88 -51 139q-49 51 -131 51q-80 0 -131 -51q-54 -53 -54 -139q0 -82 54 -133q49 -53 127 -56h2z" />
    <glyph glyph-name="L" unicode="/" horiz-adv-x="678" 
d="M240 -82l438 1485h-207l-438 -1485h207z" />
    <glyph glyph-name="M" unicode="0" 
d="M567 -23q252 5 379 195q123 188 123 500q0 282 -113 479q-116 199 -383 203q-256 -4 -381 -199q-124 -193 -124 -491q2 -289 122 -484q119 -198 375 -203h2zM567 213q-186 -2 -190 455q4 450 190 450q189 -2 189 -450q-2 -455 -187 -455h-2z" />
    <glyph glyph-name="N" unicode="1" 
d="M483 0h301v1331h-256l-354 -164l51 -233v0l254 121h4v-1055z" />
    <glyph glyph-name="O" unicode="2" 
d="M1032 0v256h-504v4l123 102q152 129 252 269q100 141 102 305q0 184 -118 301q-121 115 -348 117q-277 -7 -435 -138l88 -221v0q54 41 127 74q72 33 158 35q117 -2 168 -55q49 -54 49 -140q0 -202 -436 -567l-170 -154v-188h944z" />
    <glyph glyph-name="P" unicode="3" 
d="M78 70q127 -86 395 -93q258 3 401 117q142 111 144 289q-2 135 -82 219q-84 84 -207 107v4q244 90 244 309q0 143 -113 235q-115 95 -328 97q-276 -7 -411 -101l63 -225v0q43 27 119 53q76 27 158 27q100 0 149 -39q47 -37 47 -100q-2 -82 -77 -119q-33 -19 -74 -25
q-43 -10 -84 -10h-121v-223h127q106 0 184 -45q80 -45 82 -148q0 -75 -59 -123q-62 -53 -184 -53q-99 2 -181 31q-39 12 -73 29q-33 12 -56 22z" />
    <glyph glyph-name="Q" unicode="4" 
d="M932 0v317h157v234h-157v780h-383l-502 -811v-203h590v-317h295zM336 551l2 4l176 291q63 123 125 248h6q-8 -129 -8 -248v-295h-301z" />
    <glyph glyph-name="R" unicode="5" 
d="M975 1331h-733l-86 -696q73 12 178 12q198 0 289 -57q86 -60 86 -166q-2 -105 -82 -154q-82 -49 -185 -49q-90 0 -172 23q-82 20 -127 43l-57 -234q119 -71 371 -76q272 5 422 142q147 135 149 325q-4 236 -162 336q-69 51 -159 76q-46 12 -93 18q-49 2 -98 2
q-45 0 -86 -4l29 203h516v256z" />
    <glyph glyph-name="S" unicode="6" 
d="M936 1350q-41 6 -125 -3q-313 -14 -512 -194q-233 -211 -238 -594q0 -244 134 -407q131 -170 397 -175q219 5 354 144q133 135 135 338q-2 211 -121 321q-116 113 -290 113q-185 -2 -283 -105h-6q24 121 127 209q102 90 307 109q72 6 121 4v240zM586 207q-105 2 -156 82
q-53 78 -59 186q0 53 14 80q23 51 72 84q47 33 110 33q101 -2 150 -68q49 -67 49 -162q0 -102 -47 -166q-47 -69 -131 -69h-2z" />
    <glyph glyph-name="T" unicode="7" 
d="M100 1331v-256h611v-4l-549 -1071h329l549 1137v194h-940z" />
    <glyph glyph-name="U" unicode="8" 
d="M577 1354q-200 -2 -331 -103q-133 -100 -135 -272q0 -182 192 -293v-4q-233 -94 -237 -334q0 -141 120 -252q123 -114 373 -119q238 3 375 113q135 111 137 293q-2 129 -74 211q-69 82 -172 119v6q101 51 150 129q45 78 45 164q0 63 -23 125q-24 59 -80 108
q-106 105 -337 109h-3zM571 192q-88 0 -135 58q-49 55 -51 129q2 149 162 198q94 -24 151 -75q58 -56 58 -144q-2 -71 -49 -116q-50 -50 -134 -50h-2zM571 1143q86 -2 125 -51q35 -48 35 -115q0 -62 -39 -107t-96 -61q-41 12 -72 31q-35 18 -59 39q-55 43 -55 110
q0 64 41 109q38 45 118 45h2z" />
    <glyph glyph-name="V" unicode="9" 
d="M182 -18q60 -5 142 0q317 12 512 186q227 197 231 612q0 240 -121 404q-125 166 -383 170q-221 -2 -358 -140q-142 -137 -144 -340q2 -194 123 -305q119 -110 291 -110q182 0 270 96l5 -2q-35 -156 -168 -246q-113 -74 -265 -82q-81 -8 -135 0v-243zM555 1126
q106 -2 154 -86q45 -84 41 -194q0 -53 -15 -80q-22 -35 -65 -59q-43 -27 -111 -27q-92 0 -139 63q-49 62 -49 150q0 106 53 170q51 63 129 63h2z" />
    <glyph glyph-name="W" unicode=":" horiz-adv-x="532" 
d="M287 639q84 0 135 55q47 51 47 131q-2 88 -49 137q-49 52 -133 52q-82 0 -129 -52q-54 -53 -54 -137q0 -80 52 -131q47 -55 129 -55h2zM285 -23q84 3 135 56q47 51 47 131q-2 88 -49 137q-49 51 -133 51q-82 0 -129 -51q-54 -53 -54 -137q0 -80 52 -131q47 -53 129 -56h2
z" />
    <glyph glyph-name="X" unicode=";" horiz-adv-x="532" 
d="M211 -225q151 256 256 583l-313 -20q-48 -295 -150 -582zM297 639q84 0 135 55q47 51 47 131q-2 88 -49 137q-49 52 -133 52q-82 0 -129 -52q-53 -53 -53 -137q0 -80 51 -131q47 -55 129 -55h2z" />
    <glyph glyph-name="Y" unicode="&#x3c;" horiz-adv-x="1221" 
d="M119 455l985 -455v0v217l-746 324v4l746 325v217v0l-985 -456v-176z" />
    <glyph glyph-name="Z" unicode="=" horiz-adv-x="1221" 
d="M1139 666v190h-1057v-190h1057zM1139 242v190h-1057v-190h1057z" />
    <glyph glyph-name="bracketleft" unicode="&#x3e;" horiz-adv-x="1221" 
d="M1102 637l-985 450v0v-217l762 -325v-4l-762 -326v-215v0l985 448v189z" />
    <glyph glyph-name="backslash" unicode="?" horiz-adv-x="911" 
d="M555 448v37q-4 135 104 254q31 35 62 72q33 37 57 78q55 82 58 196q0 131 -95 224q-96 92 -299 94q-225 -6 -342 -84l68 -221v0q92 57 205 59q147 -10 147 -121q0 -51 -33 -102q-34 -55 -86 -113q-133 -162 -120 -319l4 -54h270zM414 -23q84 3 135 56q47 51 47 131
q-2 84 -49 135q-51 51 -135 51q-82 0 -129 -51q-54 -51 -54 -135q0 -80 52 -131q51 -53 131 -56h2z" />
    <glyph glyph-name="bracketright" unicode="@" horiz-adv-x="1577" 
d="M905 702q-14 -90 -61 -151q-51 -64 -113 -64q-49 0 -74 35q-26 35 -26 92q0 123 71 207q68 82 170 84q39 0 64 -8zM1081 168v0q-133 -64 -299 -64q-231 0 -374 142q-146 137 -148 395q4 299 178 467q166 168 410 170q241 -2 364 -135q125 -131 125 -338q-2 -176 -65 -262
q-62 -86 -133 -84q-84 0 -54 178l62 381q-90 47 -242 49q-223 -4 -350 -143q-131 -138 -131 -334q0 -127 65 -195q64 -73 164 -73q168 0 266 157h5q10 -80 57 -117q47 -40 119 -40q170 0 278 133q109 129 111 356q-2 264 -172 426q-170 164 -449 166q-348 -6 -553 -232
q-211 -225 -213 -548q4 -304 193 -471q184 -172 446 -175q205 -2 375 74z" />
    <glyph glyph-name="asciicircum" unicode="A" horiz-adv-x="1343" 
d="M852 354l106 -354h336l-430 1380h-407l-422 -1380h323l97 354h397zM500 588l84 293q32 131 61 266h6q33 -131 68 -266l86 -293h-305z" />
    <glyph glyph-name="underscore" unicode="B" horiz-adv-x="1237" 
d="M135 6q107 -18 338 -20q401 2 543 125q139 102 143 292q-2 138 -76 224q-75 86 -198 116v4q116 48 172 125q53 78 53 168q0 97 -45 166q-43 70 -119 107q-135 80 -407 77q-258 -2 -404 -30v-1354zM444 1153q33 10 133 10q220 -2 222 -160q-2 -165 -252 -170h-103v320z
M444 610h107q121 0 201 -43q77 -47 79 -151q-2 -107 -77 -154q-78 -47 -189 -47q-78 -2 -121 6v389z" />
    <glyph glyph-name="grave" unicode="C" horiz-adv-x="1218" 
d="M1102 283q-47 -19 -117 -31q-72 -14 -145 -14q-435 8 -441 450q2 234 129 346q121 113 310 113q86 0 151 -15q66 -14 111 -36l65 245q-41 23 -129 43q-86 17 -211 19q-321 0 -532 -187q-217 -188 -221 -544q0 -301 184 -494q182 -196 539 -201q260 7 352 60z" />
    <glyph glyph-name="a" unicode="D" horiz-adv-x="1425" 
d="M135 6q113 -18 354 -20q414 0 639 178q219 166 228 559q-4 366 -234 524q-184 146 -567 143q-240 0 -420 -30v-1354zM446 1139q41 10 142 12q430 2 438 -438q-12 -490 -471 -484q-61 -2 -109 7v903z" />
    <glyph glyph-name="b" unicode="E" horiz-adv-x="1094" 
d="M956 838h-508v286h539v256h-850v-1380h879v256h-568v328h508v254z" />
    <glyph glyph-name="c" unicode="F" horiz-adv-x="1079" 
d="M137 0h311v555h496v254h-496v315h531v256h-842v-1380z" />
    <glyph glyph-name="d" unicode="G" horiz-adv-x="1397" 
d="M1288 790h-514v-243h213v-291q-41 -18 -151 -18q-193 0 -314 120q-121 115 -123 332q2 225 133 336q127 111 326 111q113 0 191 -17q75 -14 129 -43v0l65 252q-108 59 -383 66q-344 -2 -561 -189q-217 -186 -227 -532q2 -314 194 -504q187 -182 561 -184q295 8 461 77
v727z" />
    <glyph glyph-name="e" unicode="H" horiz-adv-x="1411" 
d="M137 1380v-1380h311v575h514v-575h312v1380h-312v-532h-514v532h-311z" />
    <glyph glyph-name="f" unicode="I" horiz-adv-x="584" 
d="M137 1380v-1380h311v1380h-311z" />
    <glyph glyph-name="g" unicode="J" horiz-adv-x="842" 
d="M405 510q0 -156 -57 -215q-55 -59 -156 -57q-94 0 -159 24l-35 -252q106 -30 229 -33q230 -2 359 119t131 412v872h-312v-870z" />
    <glyph glyph-name="h" unicode="K" horiz-adv-x="1257" 
d="M135 0h309v451l117 145v0l340 -596h363l-480 793l457 587h-385l-311 -458q-49 -72 -97 -152h-4v610h-309v-1380z" />
    <glyph glyph-name="i" unicode="L" horiz-adv-x="1046" 
d="M137 0h860v262h-549v1118h-311v-1380z" />
    <glyph glyph-name="j" unicode="M" horiz-adv-x="1732" 
d="M1325 0h303l-74 1380h-409l-146 -458q-73 -244 -131 -496h-8q-47 250 -117 491l-135 463h-416l-88 -1380h289l27 524q12 275 22 572h4q56 -285 125 -541l148 -532h243l168 538q84 256 156 535h4q0 -312 12 -568z" />
    <glyph glyph-name="k" unicode="N" horiz-adv-x="1413" 
d="M422 0v416q0 334 -14 604h8q108 -252 239 -488l295 -532h328v1380h-287v-401q-2 -309 25 -578h-4q-99 244 -226 473l-286 506h-365v-1380h287z" />
    <glyph glyph-name="l" unicode="O" horiz-adv-x="1468" 
d="M723 -23q657 13 676 727q0 295 -168 494q-166 201 -488 205q-307 -4 -487 -205q-182 -201 -184 -518q0 -301 174 -498q168 -200 475 -205h2zM733 225q-158 2 -244 135q-90 131 -90 328q0 199 88 332t248 135q164 -4 248 -137q84 -131 84 -324q0 -207 -84 -334
q-86 -133 -248 -135h-2z" />
    <glyph glyph-name="m" unicode="P" horiz-adv-x="1190" 
d="M135 0h309v496q45 -9 107 -9q285 0 450 146q125 119 125 327q-4 209 -145 318q-137 112 -424 112q-281 -2 -422 -28v-1362zM444 1143q35 10 129 10q242 -4 244 -203q-6 -219 -268 -223q-66 0 -105 8v408z" />
    <glyph glyph-name="n" unicode="Q" horiz-adv-x="1468" 
d="M1317 -238l88 242q-168 33 -332 78v8q139 64 231 223q93 158 95 394q-2 290 -166 489q-168 203 -486 207q-313 -4 -491 -205q-182 -201 -184 -520q4 -338 186 -510q176 -174 418 -191q47 -2 94 -20q266 -111 547 -195v0zM735 225q-158 2 -244 135q-90 127 -90 328t88 332
q88 133 248 135q162 -2 248 -135q84 -131 84 -326q0 -207 -84 -334q-86 -133 -248 -135h-2z" />
    <glyph glyph-name="o" unicode="R" horiz-adv-x="1214" 
d="M135 0h309v543h93q96 2 149 -45q51 -47 78 -176q61 -259 94 -322h320q-19 45 -48 158q-30 112 -63 233q-45 195 -184 256v6q94 35 168 121q73 88 75 217q-2 191 -129 289q-143 113 -446 110q-258 -2 -416 -30v-1360zM444 1147q31 10 142 10q225 -2 229 -190
q-4 -195 -248 -199h-123v379z" />
    <glyph glyph-name="p" unicode="S" horiz-adv-x="1106" 
d="M145 319l-63 -256q135 -79 391 -86q285 3 422 129q133 123 133 299q2 287 -356 414q-133 51 -195 94q-61 41 -61 103q0 55 51 94q49 39 149 39q54 0 97 -4q43 -6 80 -17q71 -22 110 -45l70 250q-119 66 -353 70q-243 -2 -380 -117q-140 -115 -142 -297q0 -149 107 -250
q100 -100 274 -162q125 -40 178 -83q54 -46 54 -109q-2 -149 -220 -152q-210 5 -346 86v0z" />
    <glyph glyph-name="q" unicode="T" horiz-adv-x="1122" 
d="M403 0h312v1118h377v262h-1061v-262h372v-1118z" />
    <glyph glyph-name="r" unicode="U" horiz-adv-x="1397" 
d="M135 1380v-770q6 -639 551 -633q567 -2 575 629v774h-311v-792q-2 -363 -254 -361q-248 0 -250 361v792h-311z" />
    <glyph glyph-name="s" unicode="V" horiz-adv-x="1302" 
d="M825 0l465 1380h-332l-176 -590q-71 -237 -125 -487h-6q-51 252 -123 494l-168 583h-342l443 -1380h364z" />
    <glyph glyph-name="t" unicode="W" horiz-adv-x="1818" 
d="M700 0l131 594q48 201 80 426h4q25 -227 66 -426l117 -594h338l356 1380h-318l-112 -563q-45 -250 -80 -481h-4q-29 225 -74 463l-110 581h-332l-117 -563q-53 -260 -90 -489h-4q-35 225 -82 485l-104 567h-334l327 -1380h342z" />
    <glyph glyph-name="u" unicode="X" horiz-adv-x="1255" 
d="M1223 0l-410 707l389 673h-356l-117 -252q-49 -108 -94 -229h-4q-45 111 -105 229l-121 252h-358l385 -682l-399 -698h356l113 250q67 137 108 248h4q54 -111 123 -248l125 -250h361z" />
    <glyph glyph-name="v" unicode="Y" horiz-adv-x="1235" 
d="M766 0v575l455 805h-351l-139 -331q-59 -142 -104 -265h-4q-46 125 -107 265l-139 331h-359l437 -815v-565h311z" />
    <glyph glyph-name="w" unicode="Z" horiz-adv-x="1182" 
d="M49 0h1071v258h-653v8l643 934v180h-1001v-258h598v-6l-658 -948v-168z" />
    <glyph glyph-name="x" unicode="[" horiz-adv-x="643" 
d="M557 -229v172h-195v1288h195v172h-418v-1632h418z" />
    <glyph glyph-name="y" unicode="\" horiz-adv-x="700" 
d="M668 -82l-437 1485h-206l436 -1485h207z" />
    <glyph glyph-name="z" unicode="]" horiz-adv-x="643" 
d="M86 1403v-172h195v-1288h-195v-172h418v1632h-418z" />
    <glyph glyph-name="braceleft" unicode="^" horiz-adv-x="1221" 
d="M1135 362l-428 969h-191l-428 -969h219l299 730h6l299 -730h224z" />
    <glyph glyph-name="bar" unicode="_" horiz-adv-x="1024" 
d="M0 -154v-102h1024v102h-1024z" />
    <glyph glyph-name="Uacute" unicode="&#x2018;" horiz-adv-x="532" 
d="M346 864q47 281 143 553l-188 -16q-145 -244 -246 -555z" />
    <glyph glyph-name="asciitilde" unicode="a" horiz-adv-x="1081" 
d="M958 592q2 184 -92 305q-98 125 -346 127q-67 0 -125 -6q-61 -10 -110 -23q-101 -28 -154 -61l57 -199v0q111 70 277 74q57 0 94 -10q37 -13 55 -33q35 -43 33 -86v-12q-268 0 -426 -93q-160 -94 -162 -290q0 -123 88 -213q84 -92 236 -95q184 3 287 123h6l18 -100h281
q-17 92 -17 242v350zM657 365q0 -29 -6 -54q-16 -47 -59 -80q-43 -34 -103 -34q-53 0 -86 30q-36 31 -36 88q2 88 86 125q79 33 204 33v-108z" />
    <glyph glyph-name="Adieresis" unicode="b" horiz-adv-x="1225" 
d="M125 299q0 -184 -8 -299h264l12 139h4q54 -88 135 -123q78 -39 166 -39q181 0 316 136q137 135 141 405q0 234 -113 369q-114 135 -299 137q-211 -4 -303 -141h-4v571h-311v-1155zM436 573q0 31 6 58q17 69 68 112q51 41 115 41q110 -2 163 -80q52 -79 52 -198
q-4 -281 -215 -283q-68 0 -115 43q-51 41 -68 105q-6 24 -6 55v147z" />
    <glyph glyph-name="Aring" unicode="c" horiz-adv-x="924" 
d="M840 254q-70 -33 -179 -33q-116 0 -192 74q-82 72 -82 209q2 127 74 203q69 75 194 77q62 0 105 -8q43 -10 69 -22l50 231q-107 39 -238 39q-281 -4 -426 -156q-147 -149 -147 -377q10 -503 530 -514q186 3 278 48z" />
    <glyph glyph-name="Ccedilla" unicode="d" horiz-adv-x="1221" 
d="M784 1454v-543h-4q-71 109 -264 113q-184 -2 -313 -139q-129 -140 -135 -394q2 -235 127 -372q118 -139 301 -142q100 0 184 43q82 43 129 125h6l12 -145h277q-8 115 -8 299v1155h-312zM784 444q0 -36 -6 -69q-12 -66 -63 -107q-49 -43 -119 -43q-96 0 -154 76
q-59 72 -59 199q0 123 55 202q53 80 160 82q74 -2 123 -43q47 -41 59 -108q4 -29 4 -58v-131z" />
    <glyph glyph-name="Eacute" unicode="e" horiz-adv-x="1081" 
d="M1010 401q8 41 10 125q0 195 -101 344q-104 152 -346 156q-258 -6 -381 -170q-124 -164 -124 -365q6 -501 534 -511q207 0 363 63l-41 211q-121 -43 -277 -43q-110 0 -190 49q-80 45 -92 143zM362 616q7 68 52 134q45 67 143 69q55 0 90 -18q33 -23 51 -54q19 -30 27 -65
q6 -37 6 -66h-369z" />
    <glyph glyph-name="Ntilde" unicode="f" horiz-adv-x="698" 
d="M473 0v772h199v229h-201v52q0 75 37 127q33 51 108 51q62 0 101 -15l12 240q-63 18 -164 21q-69 0 -141 -21q-74 -25 -137 -80q-64 -63 -95 -151q-14 -43 -20 -90q-10 -48 -10 -95v-39h-133v-229h133v-772h311z" />
    <glyph glyph-name="Odieresis" unicode="g" horiz-adv-x="1198" 
d="M1073 702q0 213 8 299h-270l-10 -118h-4q-37 63 -105 102q-65 39 -170 39q-188 -2 -317 -141q-135 -142 -137 -387q2 -217 120 -351q115 -135 303 -137q177 2 271 129h4v-63q-2 -137 -74 -201q-74 -63 -186 -63q-90 2 -164 24q-78 23 -127 51v0l-61 -237q147 -74 360 -76
q57 0 113 8q55 6 106 19q53 14 100 39q48 24 86 57q158 156 154 450v557zM762 446q0 -43 -10 -84q-17 -53 -60 -88q-43 -36 -106 -36q-97 2 -150 79q-53 74 -53 187q0 139 59 213q58 71 146 71q131 -4 168 -137q6 -28 6 -57v-148z" />
    <glyph glyph-name="Udieresis" unicode="h" horiz-adv-x="1200" 
d="M125 0h311v594q0 37 10 67q19 46 58 78q37 33 98 33q88 -2 127 -61q35 -60 35 -160v-551h311v584q-2 227 -98 335q-98 105 -252 105q-88 0 -162 -39q-74 -37 -123 -104h-4v573h-311v-1454z" />
    <glyph glyph-name="aacute" unicode="i" horiz-adv-x="561" 
d="M436 0v1001h-311v-1001h311zM281 1132q84 0 131 50q45 47 45 116q0 74 -47 121q-48 45 -127 45q-80 0 -127 -45q-50 -47 -50 -121q0 -69 50 -116q45 -50 123 -50h2z" />
    <glyph glyph-name="agrave" unicode="j" horiz-adv-x="596" 
d="M-49 -438q112 0 215 30q100 31 170 93q141 120 141 436v880h-311v-804q0 -146 -12 -217q-15 -74 -50 -109q-61 -59 -184 -66zM319 1132q84 0 132 50q45 47 45 116q0 74 -48 121q-47 45 -126 45q-80 0 -127 -45q-50 -47 -50 -121q0 -69 50 -116q45 -50 122 -50h2z" />
    <glyph glyph-name="acircumflex" unicode="k" horiz-adv-x="1110" 
d="M436 1454h-311v-1454h311v311l78 101v0l244 -412h383l-410 596l358 405h-374l-203 -303q-37 -55 -72 -121h-4v877z" />
    <glyph glyph-name="adieresis" unicode="l" horiz-adv-x="561" 
d="M125 0h311v1454h-311v-1454z" />
    <glyph glyph-name="atilde" unicode="m" horiz-adv-x="1761" 
d="M125 0h303v582q-2 41 12 79q15 39 51 76q37 33 95 35q75 0 112 -57q33 -58 33 -154v-561h303v586q0 41 10 78q19 47 56 77q35 29 90 31q147 -4 147 -229v-543h303v590q-2 223 -94 329q-96 105 -244 105q-108 -2 -190 -49q-74 -43 -131 -123h-4q-72 168 -275 172
q-125 -2 -198 -53q-37 -25 -62 -54q-24 -28 -43 -53h-6l-12 137h-264q8 -133 8 -319v-682z" />
    <glyph glyph-name="aring" unicode="n" horiz-adv-x="1200" 
d="M125 0h311v577q0 46 10 78q19 45 58 82q39 33 102 35q84 0 123 -57q35 -60 35 -160v-555h311v592q-2 221 -100 327q-101 105 -258 105q-125 -2 -201 -55q-78 -54 -108 -107h-7l-14 139h-270q8 -133 8 -319v-682z" />
    <glyph glyph-name="ccedilla" unicode="o" horiz-adv-x="1182" 
d="M588 -23q209 0 364 132q158 129 162 401q-2 231 -139 373q-137 139 -371 141q-246 -2 -389 -143q-145 -142 -147 -387q2 -244 151 -379q143 -135 367 -138h2zM590 201q-99 0 -150 88q-53 82 -53 211q0 118 47 209q49 90 158 92q106 -2 153 -92q45 -91 45 -207
q0 -135 -51 -217q-53 -84 -147 -84h-2z" />
    <glyph glyph-name="eacute" unicode="p" horiz-adv-x="1225" 
d="M125 -405h311v497h4q74 -110 260 -115q176 0 314 134q137 131 141 403q-4 242 -125 377q-119 131 -291 133q-221 -2 -334 -162h-4l-14 139h-270q8 -139 8 -335v-1071zM436 567q0 29 6 56q17 71 70 114q51 41 117 43q104 -2 159 -78q52 -79 52 -202q0 -127 -56 -203
q-57 -80 -159 -80q-68 0 -115 43q-51 41 -68 105q-6 30 -6 65v137z" />
    <glyph glyph-name="egrave" unicode="q" horiz-adv-x="1218" 
d="M784 -405h312v1105q0 158 6 301h-299l-8 -116h-5q-86 139 -280 139q-168 0 -301 -131q-137 -135 -141 -406q2 -237 127 -372q118 -135 286 -138q203 3 299 150h4v-532zM784 432q0 -33 -8 -67q-16 -62 -63 -101q-47 -41 -117 -41q-98 0 -156 78q-57 72 -57 199
q0 125 55 202q56 76 160 78q74 -2 121 -43q47 -43 59 -106q6 -23 6 -49v-150z" />
    <glyph glyph-name="ecircumflex" unicode="r" horiz-adv-x="778" 
d="M125 0h311v506q0 39 6 69q37 156 213 158q49 0 86 -8v293q-28 6 -65 6q-76 0 -152 -47q-76 -51 -119 -162h-8l-12 186h-266q8 -118 8 -329z" />
    <glyph glyph-name="edieresis" unicode="s" horiz-adv-x="889" 
d="M123 270l-55 -221q120 -67 323 -72q215 3 326 95q106 88 106 231q6 215 -270 307q-90 33 -125 58q-39 24 -37 59q0 78 119 80q65 -2 125 -19q57 -16 92 -36l53 213q-98 55 -280 59q-187 -2 -295 -92q-113 -92 -113 -238q0 -88 66 -166q65 -80 221 -133q43 -12 74 -24
q28 -15 43 -27q28 -27 28 -65q2 -82 -133 -82q-72 0 -145 24q-76 23 -123 49v0z" />
    <glyph glyph-name="iacute" unicode="t" horiz-adv-x="752" 
d="M473 1274l-305 -84v-189h-133v-229h133v-412q0 -208 86 -297q82 -83 235 -86q136 3 201 27l-2 236q-35 -9 -92 -9q-127 -2 -123 177v364h223v229h-223v273v0z" />
    <glyph glyph-name="igrave" unicode="u" horiz-adv-x="1194" 
d="M1069 1001h-311v-596q0 -38 -13 -67q-12 -39 -51 -72q-39 -35 -104 -37q-160 4 -158 234v538h-311v-587q10 -443 352 -437q135 5 211 60q39 24 66 53q24 29 36 51h7l14 -141h270q-8 125 -8 322v679z" />
    <glyph glyph-name="icircumflex" unicode="v" horiz-adv-x="1085" 
d="M18 1001l365 -1001h311l373 1001h-328l-129 -464q-33 -125 -55 -244h-6q-23 119 -58 244l-135 464h-338z" />
    <glyph glyph-name="idieresis" unicode="w" horiz-adv-x="1554" 
d="M23 1001l292 -1001h293l101 352q36 131 63 312h4q29 -177 66 -314l94 -350h291l307 1001h-305l-84 -397q-37 -172 -60 -342h-4q-28 170 -73 340l-101 399h-246l-106 -413q-39 -152 -72 -326h-6q-26 174 -55 328l-82 411h-317z" />
    <glyph glyph-name="ntilde" unicode="x" horiz-adv-x="1063" 
d="M14 1001l332 -491l-340 -510h342l94 180q39 74 76 152h6q35 -78 78 -152l100 -180h353l-334 524l330 477h-338l-88 -161q-39 -74 -78 -156h-4q-39 74 -82 149l-99 168h-348z" />
    <glyph glyph-name="oacute" unicode="y" horiz-adv-x="1071" 
d="M12 1001l369 -915q12 -37 12 -51q0 -21 -16 -45q-51 -80 -129 -125q-74 -41 -135 -53l65 -263q64 7 141 39q78 29 160 99q84 71 166 219q82 145 186 436l234 659h-334l-123 -491q-22 -96 -45 -186h-6q-20 88 -49 186l-150 491h-346z" />
    <glyph glyph-name="ograve" unicode="z" horiz-adv-x="960" 
d="M45 0h870v248h-481v4q84 86 164 182l301 379v188h-819v-247h440v-4q-80 -84 -160 -177l-315 -393v-180z" />
    <glyph glyph-name="ocircumflex" unicode="{" horiz-adv-x="643" 
d="M61 510q56 0 88 -14q31 -13 46 -35q24 -45 22 -90q-2 -76 -10 -160q-12 -84 -12 -162q0 -151 88 -215q84 -63 221 -63h73v172h-36q-70 4 -97 43q-28 37 -28 104q0 53 10 115q8 63 10 143q2 117 -41 170q-47 53 -133 68v4q86 18 133 71q43 54 41 166q-2 78 -10 142
q-10 61 -10 114q-4 140 125 146h36v174h-71q-305 2 -311 -277q0 -77 12 -161q8 -82 10 -160q2 -45 -22 -88q-15 -19 -46 -33q-32 -14 -88 -18v-156z" />
    <glyph glyph-name="odieresis" unicode="|" horiz-adv-x="580" 
d="M180 1536v-2048h217v2048h-217z" />
    <glyph glyph-name="otilde" unicode="}" horiz-adv-x="643" 
d="M582 666q-52 4 -82 18q-31 14 -47 33q-29 43 -27 88q0 78 12 160q8 84 10 161q-6 279 -311 277h-71v-174h36q127 -6 125 -146q0 -53 -10 -114q-10 -64 -10 -142q0 -112 47 -166q43 -53 127 -71v-4q-84 -15 -127 -68q-47 -53 -47 -170q0 -80 10 -143q10 -62 10 -115
q0 -67 -24 -104q-31 -39 -101 -43h-36v-172h73q142 0 226 63q81 64 83 215q-2 78 -10 162q-12 84 -12 160q-2 45 27 90q28 43 129 49v156z" />
    <glyph glyph-name="uacute" unicode="~" horiz-adv-x="1221" 
d="M283 395q8 99 32 133q27 33 64 33q67 -2 194 -84q154 -98 287 -98q121 -2 201 84q78 86 71 301h-194q-4 -90 -23 -127q-22 -39 -59 -39q-70 2 -197 80q-84 49 -147 74q-66 24 -139 24q-125 0 -203 -86q-80 -90 -82 -295h195z" />
    <glyph glyph-name="fl" unicode="&#xa1;" horiz-adv-x="549" 
d="M436 -391l-45 923h-233l-45 -923h323zM276 1010q-79 0 -131 -52q-53 -51 -53 -135q0 -82 51 -133q49 -53 133 -53t134 53q47 51 49 133q-2 84 -49 135q-50 52 -131 52h-3z" />
    <glyph glyph-name="questiondown" unicode="&#xa2;" 
d="M772 -23v195q127 12 205 47l-37 225q-76 -34 -203 -36q-110 0 -186 71q-78 68 -80 203q0 127 74 203q69 71 190 73q119 -2 182 -36l50 229q-91 37 -195 41v186h-201v-196q-202 -41 -309 -181q-108 -141 -108 -329q0 -207 112 -338q111 -125 305 -156v-201h201z" />
    <glyph glyph-name="exclamdown" unicode="&#xa3;" 
d="M1038 0v254h-547v4q74 68 101 145q18 72 18 146h254v213h-282q-19 74 -19 151q-2 80 43 136q41 55 148 57q112 -2 174 -37l49 235q-33 19 -94 35q-31 6 -66 13q-37 2 -80 2q-209 -2 -334 -115q-127 -115 -129 -311q0 -88 17 -166h-164v-213h201q6 -39 6 -82
q-2 -107 -72 -184q-72 -82 -158 -117v-166h934z" />
    <glyph glyph-name="macron" unicode="&#x2215;" horiz-adv-x="868" 
d="M141 -23l756 1377h-170l-756 -1377h170z" />
    <glyph glyph-name="quotedblleft" unicode="&#xa5;" 
d="M704 0v328h322v145h-322v131h322v146h-244l350 581h-327l-146 -326q-49 -120 -88 -225h-4q-35 105 -86 223l-143 328h-334l334 -581h-246v-146h320v-131h-320v-145h320v-328h292z" />
    <glyph glyph-name="quotesinglbase" unicode="&#x192;" 
d="M233 627h162l-33 -287q-20 -170 -55 -231q-35 -64 -110 -62q-54 2 -97 19l-45 -218q56 -28 187 -34q213 2 301 131q88 125 104 315l47 367h234v215h-209l12 90q10 88 49 137q39 47 115 49q59 -2 96 -18l49 221q-59 31 -170 33q-131 -2 -213 -50q-84 -47 -133 -120
q-24 -35 -39 -72q-16 -37 -28 -74q-23 -76 -29 -129l-8 -67h-187v-215z" />
    <glyph glyph-name="logicalnot" unicode="&#xa7;" horiz-adv-x="1149" 
d="M334 702q2 74 74 109q49 -23 124 -47q74 -29 140 -53q143 -60 141 -148q-2 -69 -61 -108q-35 18 -101 43q-65 20 -139 45q-180 63 -178 157v2zM950 1339q-145 62 -323 62q-191 0 -316 -80q-129 -80 -131 -238q0 -59 27 -108q22 -49 55 -78q-84 -45 -127 -111
q-43 -69 -43 -139q2 -149 125 -227q115 -78 283 -127q116 -35 168 -68q49 -35 49 -86q-2 -51 -49 -76q-52 -28 -136 -28q-94 0 -178 31q-39 12 -73 28q-35 15 -60 27v0l-59 -191q86 -51 188 -69q101 -21 195 -21q155 0 301 72q69 37 110 100q41 64 43 156q-2 72 -28 121
q-29 47 -62 69q144 86 148 250q-2 156 -111 236q-108 78 -278 123q-220 59 -220 143q0 96 183 98q92 0 159 -16q66 -19 111 -41z" />
    <glyph glyph-name="breve" unicode="&#xa4;" 
d="M567 1126q-141 0 -235 -75v0l-158 174v0l-137 -142l178 -157q-27 -39 -47 -97q-25 -61 -25 -147q0 -82 25 -143q20 -62 49 -101l-170 -162l133 -137v0l148 176v0q47 -36 110 -55q64 -22 127 -22q64 0 129 22q64 19 111 59v0l149 -180v0l135 137l-174 166q29 39 52 101
q20 61 20 145t-20 141q-19 58 -45 97l178 159l-138 140v0l-155 -172v0q-94 71 -238 73h-2zM567 917q84 -2 137 -65q52 -64 52 -166q-2 -123 -58 -180q-57 -60 -131 -60q-67 0 -125 60q-61 59 -63 178q0 109 55 172q51 59 131 61h2z" />
    <glyph glyph-name="D" unicode="'" horiz-adv-x="420" 
d="M74 1417l45 -555h184l45 555h-274z" />
    <glyph glyph-name="apple" unicode="&#x201c;" horiz-adv-x="930" 
d="M342 864q47 281 143 553l-188 -16q-68 -117 -131 -260q-66 -144 -115 -295zM743 864q45 281 144 553l-189 -16q-145 -244 -245 -555z" />
    <glyph glyph-name="Acircumflex" unicode="&#xab;" horiz-adv-x="952" 
d="M508 907h-217l-238 -391l238 -389h217l-246 389zM905 907h-217l-237 -391l237 -389h217l-246 389z" />
    <glyph glyph-name="dotaccent" unicode="&#x2039;" horiz-adv-x="553" 
d="M508 907h-217l-238 -391l238 -389h217l-246 389z" />
    <glyph glyph-name="ring" unicode="&#x203a;" horiz-adv-x="553" 
d="M291 516l-246 -389h215l240 389l-240 391h-215z" />
    <glyph glyph-name="cedilla" unicode="&#xf001;" horiz-adv-x="1204" 
d="M473 0v772h295v-772h311v1001h-608v35q-2 86 49 139q51 54 172 56q152 -4 227 -51l60 235q-49 29 -129 45q-82 17 -166 17q-233 -3 -377 -111q-143 -111 -145 -322v-43h-133v-229h133v-772h311z" />
    <glyph glyph-name="hungarumlaut" unicode="&#xf002;" horiz-adv-x="1204" 
d="M473 0v772h180v229h-182v39q0 88 43 146q43 57 135 59q86 0 119 -20v-1225h311v1393q-155 81 -385 84q-235 0 -381 -113q-69 -60 -110 -146t-41 -174v-43h-133v-229h133v-772h311z" />
    <glyph glyph-name="Oacute" unicode="&#x2013;" horiz-adv-x="1024" 
d="M61 616v-192h901v192h-901z" />
    <glyph glyph-name="ae" unicode="&#x2020;" horiz-adv-x="1073" 
d="M393 1380l29 -411l-352 24v-241l352 26l-29 -880h285l-29 880l352 -26v241l-352 -24l29 411h-285z" />
    <glyph glyph-name="ogonek" unicode="&#x2021;" horiz-adv-x="1073" 
d="M397 1380l21 -379l-348 23v-242l348 27v-324l-348 25v-242l348 25l-21 -395h279l-23 395l348 -25v242l-348 -25v324l348 -27v242l-348 -23l21 379h-277z" />
    <glyph glyph-name="caron" unicode="&#x2219;" horiz-adv-x="532" 
d="M266 362q84 0 135 56q47 51 50 133q0 86 -52 139q-49 51 -131 51q-80 0 -131 -51q-53 -53 -53 -139q0 -82 53 -133q49 -56 127 -56h2z" />
    <glyph glyph-name="florin" unicode="&#xb6;" horiz-adv-x="1110" 
d="M618 -96v1292h148v-1292h196v1462q-102 22 -292 22q-183 0 -301 -41q-119 -40 -187 -108q-65 -68 -92 -150q-27 -81 -24 -165q4 -99 40 -168q37 -72 91 -121q53 -45 112 -70q58 -24 101 -24h12v-637h196z" />
    <glyph glyph-name="radical" unicode="&#x2022;" horiz-adv-x="692" 
d="M346 436q117 2 191 80q73 74 75 186q-2 117 -75 193q-76 74 -191 76q-113 -2 -186 -76q-76 -76 -80 -193q2 -114 80 -188q73 -78 184 -78h2z" />
    <glyph glyph-name="Lslash" unicode="&#x201a;" horiz-adv-x="532" 
d="M221 -197q146 244 246 555l-291 -18q-47 -281 -143 -553z" />
    <glyph glyph-name="lslash" unicode="&#x201e;" horiz-adv-x="940" 
d="M219 -197q146 244 246 555l-291 -18q-45 -281 -143 -553zM620 -197q72 119 136 263q63 141 110 292l-291 -18q-47 -281 -143 -553z" />
    <glyph glyph-name="Ograve" unicode="&#x201d;" horiz-adv-x="930" 
d="M192 1399q-45 -279 -143 -553l189 18q145 244 245 553zM594 1399q-47 -279 -143 -553l188 18q145 244 246 553z" />
    <glyph glyph-name="Ecircumflex" unicode="&#xbb;" horiz-adv-x="952" 
d="M291 516l-244 -389h215l238 389l-240 391h-213zM684 516l-244 -389h213l240 389l-240 391h-213z" />
    <glyph glyph-name="Aacute" unicode="&#x2026;" horiz-adv-x="2048" 
d="M340 -23q84 3 135 56q47 51 49 133q0 88 -51 139q-49 51 -131 51q-80 0 -131 -51q-53 -53 -53 -139q0 -82 53 -133q49 -53 127 -56h2zM1022 -23q84 3 135 56q47 51 49 133q0 88 -51 139q-49 51 -131 51q-80 0 -131 -51q-53 -53 -53 -139q0 -82 53 -133q49 -53 127 -56h2z
M1704 -23q84 3 135 56q47 51 49 133q0 88 -51 139q-49 51 -131 51q-80 0 -131 -51q-53 -53 -53 -139q0 -82 53 -133q49 -53 127 -56h2z" />
    <glyph glyph-name="Scaron" unicode="&#x2030;" horiz-adv-x="2631" 
d="M428 1354q-170 -2 -270 -119q-103 -117 -103 -299q2 -189 107 -293q102 -109 256 -109q149 0 258 109q108 109 110 315q0 174 -90 285q-92 109 -266 111h-2zM424 1184q72 -2 104 -68q29 -67 29 -172q0 -111 -31 -174q-32 -66 -100 -66t-102 70q-35 64 -35 170
q0 105 33 170q32 68 100 70h2zM1386 801q-170 -2 -268 -119q-102 -117 -102 -299q2 -188 106 -293q101 -106 254 -108q150 0 258 108q109 109 111 315q0 175 -90 285q-92 109 -267 111h-2zM1384 631q70 -2 103 -68q28 -67 28 -172q0 -110 -30 -174q-33 -65 -101 -65
q-67 0 -100 69q-35 64 -35 170q0 105 33 170q33 68 100 70h2zM2214 801q-170 -2 -271 -119q-102 -117 -102 -299q2 -188 107 -293q102 -106 255 -108q150 0 259 108q108 109 110 315q0 175 -90 285q-92 109 -266 111h-2zM2210 631q71 -2 104 -68q29 -67 29 -172
q0 -110 -31 -174q-33 -65 -100 -65q-68 0 -103 69q-35 64 -35 170q0 105 33 170q33 68 101 70h2zM600 -23l764 1375h-166l-766 -1375h168z" />
    <glyph glyph-name="fi" unicode="&#xbf;" horiz-adv-x="911" 
d="M508 1010q-80 0 -131 -52q-51 -51 -51 -135q0 -82 51 -133q47 -53 131 -53t135 53q47 51 47 133q-2 84 -49 135q-49 52 -131 52h-2zM369 541v-37q4 -135 -105 -254q-61 -64 -117 -146q-57 -81 -59 -200q0 -129 98 -219q97 -97 295 -99q228 6 342 84l-67 224v0
q-92 -60 -205 -62q-150 10 -148 121q0 51 37 106q33 52 82 109q133 164 121 319l-4 54h-270z" />
    <glyph glyph-name="braceright" unicode="`" horiz-adv-x="614" 
d="M8 1433l250 -311h213l-176 311h-287z" />
    <glyph glyph-name="ellipsis" unicode="&#xb4;" horiz-adv-x="614" 
d="M330 1433l-176 -311h213l249 311h-286z" />
    <glyph glyph-name="threequarters" unicode="&#x2c6;" horiz-adv-x="614" 
d="M209 1433l-203 -311h197l102 176h4l103 -176h196l-203 311h-196z" />
    <glyph glyph-name="glyph130" unicode="&#x2dc;" horiz-adv-x="614" 
d="M162 1139q8 92 49 92q31 0 80 -31q59 -45 143 -47q162 -4 160 250h-135q-2 -51 -15 -70q-14 -20 -41 -20q-38 2 -88 39q-26 16 -59 30q-33 13 -76 13q-157 -5 -157 -256h139z" />
    <glyph glyph-name="Gbreve" unicode="&#xaf;" horiz-adv-x="614" 
d="M53 1354v-160h512v160h-512z" />
    <glyph glyph-name="gbreve" unicode="&#x2d8;" horiz-adv-x="614" 
d="M43 1409q2 -113 66 -186q61 -76 198 -76q135 0 201 76q65 69 65 186h-149q-2 -45 -29 -82q-26 -41 -90 -41q-51 0 -80 37q-12 18 -20 41q-8 20 -13 45h-149z" />
    <glyph glyph-name="Idotaccent" unicode="&#x2d9;" horiz-adv-x="614" 
d="M250 1120q59 0 98 43q35 39 37 96q-2 64 -37 101q-39 39 -98 39q-60 0 -98 -39q-43 -37 -43 -101q0 -57 40 -96q39 -43 99 -43h2z" />
    <glyph glyph-name="nonbreakingspace" unicode="&#xa8;" horiz-adv-x="614" 
d="M100 1120q60 0 99 43q34 39 37 96q-3 64 -37 101q-39 39 -99 39q-59 0 -98 -39q-41 -37 -43 -101q2 -57 41 -96q39 -43 98 -43h2zM516 1120q64 0 100 43q35 39 37 96q-2 64 -37 101q-36 39 -100 39q-59 0 -98 -39q-41 -37 -41 -101q0 -57 39 -96q39 -43 98 -43h2z" />
    <glyph glyph-name="Scedilla" unicode="&#x2da;" horiz-adv-x="819" 
d="M412 1505q-113 -2 -172 -59q-64 -58 -64 -146q0 -84 64 -139q63 -59 172 -59q108 0 170 59q59 53 61 141q0 88 -57 146q-58 57 -172 57h-2zM412 1403q45 -2 69 -31q23 -29 23 -70t-23 -67q-24 -31 -71 -31q-43 0 -66 31q-25 31 -25 65q0 43 25 72q23 29 66 31h2z" />
    <glyph glyph-name="scedilla" unicode="&#xb8;" horiz-adv-x="614" 
d="M248 8l-88 -176q86 -6 125 -24q34 -19 34 -50q0 -26 -20 -39q-23 -14 -51 -14q-56 2 -113 33l-41 -115q64 -39 164 -41q102 0 176 41q72 39 74 137q-2 66 -43 105q-45 39 -105 45l56 98h-168z" />
    <glyph glyph-name="cacute" unicode="&#x2db;" horiz-adv-x="614" 
d="M317 0q-63 -23 -129 -90q-30 -33 -49 -74q-22 -41 -22 -84q0 -80 55 -121q53 -43 137 -45q109 2 172 35l-20 113q-53 -23 -101 -23q-34 0 -57 23q-24 22 -24 55q2 51 55 113q53 57 135 98h-152z" />
    <glyph glyph-name="Ccaron" unicode="&#x2c7;" horiz-adv-x="614" 
d="M412 1122l202 311h-200l-105 -180h-4l-104 180h-201l203 -311h209z" />
    <glyph glyph-name="Ocircumflex" unicode="&#x2014;" horiz-adv-x="2048" 
d="M61 616v-192h1925v192h-1925z" />
    <glyph glyph-name="Atilde" unicode="&#xc6;" horiz-adv-x="1778" 
d="M328 0l149 377h404l49 -377h790v256h-522l-43 321h481v254h-522l-35 293h565v256h-1050l-588 -1380h322zM571 627l131 331q37 97 72 203h6q10 -102 25 -201l41 -333h-275z" />
    <glyph glyph-name="Ydieresis" unicode="&#xaa;" horiz-adv-x="774" 
d="M698 545q-10 63 -10 159v220q0 116 -65 200q-68 84 -236 86q-92 0 -160 -20q-71 -19 -112 -45l41 -133q73 51 190 53q43 0 70 -8q24 -11 37 -23q12 -12 18 -24q2 -13 2 -23v-14q-186 0 -295 -58q-112 -61 -112 -180q0 -84 61 -141q55 -60 158 -60q131 3 204 78h5l14 -67
h190zM479 780q0 -18 -10 -45q-29 -59 -102 -61q-88 2 -91 80q3 55 62 77q57 25 141 21v-72z" />
    <glyph glyph-name="glyph142" unicode="&#x141;" horiz-adv-x="1059" 
d="M1010 0v262h-549v426l258 174v217v0l-258 -174v0v475h-312v-682l-153 -106v-215v0l153 104v0v-481h861z" />
    <glyph glyph-name="Otilde" unicode="&#xd8;" horiz-adv-x="1468" 
d="M315 -135v0l123 182v0q68 -33 144 -51q73 -19 153 -19q295 3 475 193q183 188 187 528q0 303 -181 508l115 172l-176 119v0l-113 -166v0q-133 72 -305 72q-305 -4 -481 -205q-182 -199 -184 -510q2 -315 190 -518l-115 -174zM438 438l-2 -2q-53 119 -53 254q0 209 94 338
q90 129 258 131q94 0 162 -51zM1036 928h4q45 -119 45 -236q-2 -211 -92 -338q-94 -131 -258 -133q-92 0 -151 49z" />
    <glyph glyph-name="Idieresis" unicode="&#x152;" horiz-adv-x="1917" 
d="M1837 256h-567v328h508v254h-508v286h538v256h-725q-51 0 -129 10q-73 11 -184 13q-317 -2 -504 -195q-192 -194 -194 -530q0 -287 170 -490q170 -206 522 -211q100 3 170 11q69 12 125 12h778v256zM958 250q-59 -25 -139 -25q-201 2 -307 131q-111 127 -111 334
q2 227 119 348q113 117 277 117q102 0 161 -29v-876z" />
    <glyph glyph-name="fraction" unicode="&#xba;" horiz-adv-x="790" 
d="M397 1210q-155 -2 -250 -92q-96 -94 -98 -252q2 -151 100 -239q97 -93 242 -93q141 0 244 86q104 84 106 259q-2 147 -92 239q-90 90 -250 92h-2zM395 1059q66 -2 96 -60q31 -55 31 -125q0 -84 -31 -135q-32 -53 -94 -53q-57 2 -92 55q-35 52 -35 127q0 68 29 127
q27 62 94 64h2z" />
    <glyph glyph-name="guilsinglleft" unicode="&#xe6;" horiz-adv-x="1644" 
d="M1575 416q6 47 8 114q0 191 -98 340q-99 152 -322 156q-223 -2 -342 -162h-6q-88 160 -330 162q-110 -2 -204 -31q-93 -30 -150 -63l61 -197v0q103 70 267 74q61 0 100 -12q37 -17 57 -35q21 -19 29 -39q6 -19 6 -33v-29q-268 3 -428 -90q-162 -92 -164 -278
q0 -133 93 -219q90 -92 253 -94q259 6 373 178h6q56 -86 158 -131q100 -47 225 -47q195 -3 369 75l-43 207q-57 -20 -121 -37q-33 -6 -72 -10q-39 -6 -88 -6q-118 0 -190 57q-76 56 -80 152zM659 365q0 -35 -8 -62q-18 -45 -57 -74q-41 -32 -103 -32q-53 0 -88 30
q-38 31 -38 88q2 86 86 123q79 37 208 33v-106zM940 629q2 61 47 125q43 65 139 67q56 0 90 -18q33 -19 52 -51q18 -31 26 -64q6 -35 2 -59h-356z" />
    <glyph glyph-name="onequarter" unicode="&#x131;" horiz-adv-x="561" 
d="M436 0v1001h-311v-1001h311z" />
    <glyph glyph-name="glyph148" unicode="&#x142;" horiz-adv-x="588" 
d="M448 0v700l146 117v223v0l-146 -116v0v530h-311v-762l-133 -106v-221v0l133 104v0v-469h311z" />
    <glyph glyph-name="guilsinglright" unicode="&#xf8;" horiz-adv-x="1182" 
d="M590 1024q-234 -2 -377 -143q-143 -142 -145 -383q2 -262 174 -398l-90 -133l102 -82v0l100 146v0q107 -54 238 -54q205 0 360 132q156 129 160 395q-2 254 -168 395l94 137l-108 74v0l-97 -139v0q-108 53 -241 53h-2zM410 340h-7q-34 74 -34 160q0 112 51 204
q51 95 170 97q67 0 112 -37zM778 653l4 -2q19 -37 27 -78q6 -41 6 -77q0 -134 -57 -213q-60 -82 -166 -82q-60 -2 -105 37z" />
    <glyph glyph-name="Igrave" unicode="&#x153;" horiz-adv-x="1778" 
d="M1710 408q6 43 8 120q2 193 -98 342q-51 72 -133 115q-86 41 -205 41q-219 -2 -348 -178h-4q-51 90 -146 135q-94 43 -207 43q-225 -2 -364 -143q-143 -142 -145 -381q2 -246 145 -383q137 -137 344 -139q115 0 215 45q96 43 160 133h6q70 -97 166 -138q94 -40 203 -40
q77 0 178 16q100 14 186 59l-43 209q-29 -8 -59 -18q-31 -8 -66 -19q-33 -6 -70 -10q-38 -6 -83 -6q-111 0 -187 55q-76 51 -86 144zM594 803q100 -2 149 -88q45 -88 45 -209q0 -137 -49 -219q-53 -84 -149 -84q-94 0 -148 88q-53 84 -53 213q-2 110 45 203q25 43 64 71
q36 25 94 25h2zM1071 620q2 64 45 130q43 65 137 67q58 0 94 -18q33 -23 52 -54q30 -67 28 -125h-356z" />
    <glyph glyph-name="approxequal" unicode="&#xdf;" horiz-adv-x="1229" 
d="M436 0v909q0 185 55 258q54 72 142 72q76 0 117 -45q40 -47 40 -119q0 -41 -14 -74q-164 -92 -164 -254q2 -98 56 -167q49 -70 102 -123q37 -39 55 -70q19 -33 19 -72q-2 -100 -137 -104q-84 0 -142 29l-39 -230q97 -33 219 -33q408 11 412 353q-2 116 -53 192
q-23 39 -51 72q-27 31 -56 57q-71 72 -71 135q-2 82 118 144q45 67 48 168q-3 176 -125 276q-123 100 -316 103q-235 -3 -368 -130q-74 -65 -115 -178q-43 -112 -43 -286v-883h311z" />
    <glyph glyph-name="glyph152" unicode="&#xa6;" horiz-adv-x="580" 
d="M180 356v-716h217v716h-217zM180 1380v-716h217v716h-217z" />
    <glyph glyph-name="onesuperior" unicode="&#xd2;" horiz-adv-x="1468" 
d="M723 -23q657 13 676 727q0 295 -168 494q-166 201 -488 205q-307 -4 -487 -205q-182 -201 -184 -518q0 -301 174 -498q168 -200 475 -205h2zM733 225q-158 2 -244 135q-90 131 -90 328q0 199 88 332t248 135q164 -4 248 -137q84 -131 84 -324q0 -207 -84 -334
q-86 -133 -248 -135h-2zM377 1714l256 -256h246l-179 256h-323z" />
    <glyph glyph-name="dagger" unicode="&#xc7;" horiz-adv-x="1223" 
d="M1102 283q-47 -19 -117 -31q-72 -14 -145 -14q-435 8 -441 450q2 234 129 346q121 113 310 113q86 0 151 -15q66 -14 111 -36l63 245q-88 58 -338 62q-321 0 -532 -187q-217 -188 -221 -544q0 -269 145 -451q143 -182 426 -231l-82 -158q86 -6 125 -24q35 -21 35 -52
q0 -26 -21 -39q-22 -12 -51 -12q-55 2 -112 33l-41 -115q61 -39 165 -41q101 0 175 41q71 39 73 137q-2 62 -43 103q-45 41 -104 47l39 67q256 13 352 60z" />
    <glyph glyph-name="multiply" unicode="&#xd7;" horiz-adv-x="1221" 
d="M215 1077l-133 -137l393 -401l-393 -402l135 -137v0l393 401v0l393 -401v0l136 137l-394 402l394 401l-134 137v0l-395 -403v0l-395 403v0z" />
    <glyph glyph-name="cent" unicode="&#xd1;" horiz-adv-x="1413" 
d="M422 0v416q0 334 -14 604h8q106 -252 239 -488l297 -532h326v1380h-285v-401q-2 -309 23 -578h-4q-97 244 -226 473l-288 506h-363v-1380h287zM561 1464q8 88 49 88q39 -2 90 -37q54 -36 133 -38q164 -5 160 249h-137q-4 -51 -16 -67q-13 -21 -39 -21q-39 2 -92 39
q-54 39 -134 41q-153 0 -155 -254h141z" />
    <glyph glyph-name="Icircumflex" unicode="&#xd5;" horiz-adv-x="1468" 
d="M723 -23q657 13 676 727q0 295 -168 494q-168 201 -490 205q-305 -4 -485 -205q-182 -201 -184 -518q0 -301 174 -498q168 -200 475 -205h2zM731 225q-158 2 -244 135q-88 131 -88 328q0 199 88 332q86 133 246 135q164 -4 250 -137q84 -131 84 -324q-2 -207 -86 -334
q-86 -133 -248 -135h-2zM590 1464q8 88 49 88q39 -2 88 -37q53 -36 133 -38q164 -5 162 249h-139q-4 -51 -17 -67q-12 -21 -39 -21q-39 2 -92 39q-51 39 -131 41q-153 0 -156 -254h142z" />
    <glyph glyph-name="quotedblright" unicode="&#xb5;" horiz-adv-x="1194" 
d="M1069 1001h-311v-622q-8 -49 -49 -96q-43 -47 -117 -50q-88 0 -123 66q-39 63 -37 168v534h-311v-1406h278l-24 452h6q29 -35 70 -49q40 -14 79 -14q54 2 97 18t73 41q31 25 54 53q20 29 32 49h7l14 -145h270q-8 125 -8 322v679z" />
    <glyph glyph-name="thorn" unicode="&#xd3;" horiz-adv-x="1468" 
d="M723 -23q657 13 676 727q0 295 -168 494q-166 201 -488 205q-307 -4 -487 -205q-182 -201 -184 -518q0 -301 174 -498q168 -200 475 -205h2zM733 225q-158 2 -244 135q-90 131 -90 328q0 199 88 332t248 135q164 -4 248 -137q84 -131 84 -324q0 -207 -84 -334
q-86 -133 -248 -135h-2zM780 1712l-180 -258h246l258 258h-324z" />
    <glyph glyph-name="glyph160" unicode="&#xfe;" horiz-adv-x="1225" 
d="M125 1384v-1789h311v499h4q78 -112 264 -117q166 0 306 129q141 130 145 404q-2 252 -127 385q-123 131 -289 129q-209 -4 -299 -145h-4v505h-311zM436 582q0 45 21 84q55 112 178 114q98 -2 151 -78q54 -75 54 -196q-7 -285 -213 -289q-54 0 -95 29q-43 24 -67 67
q-29 45 -29 97v172z" />
    <glyph glyph-name="glyph161" unicode="&#xf0;" horiz-adv-x="1175" 
d="M588 201q-97 2 -146 86q-53 80 -53 200q-2 103 45 195q25 45 64 70q39 26 94 26q98 -2 145 -67q49 -60 49 -215q0 -131 -49 -211q-49 -84 -147 -84h-2zM221 979v0l295 127v0q104 -72 178 -172l-4 -6q-37 26 -70 34q-36 11 -75 7q-199 -4 -334 -133q-139 -127 -141 -351
q2 -235 151 -370q144 -135 367 -138q207 0 362 134q156 135 160 415q0 213 -84 381q-90 180 -250 309l215 95l-61 118v0l-283 -120v0q-156 100 -323 161v0l-134 -174q101 -41 191 -98l-215 -96z" />
    <glyph glyph-name="Thorn" unicode="&#xcc;" horiz-adv-x="584" 
d="M137 1380v-1380h311v1380h-311zM-61 1714l258 -256h243l-178 256h-323z" />
    <glyph glyph-name="minus" unicode="&#xd4;" horiz-adv-x="1468" 
d="M723 -23q657 13 676 727q0 295 -168 494q-166 201 -488 205q-307 -4 -487 -205q-182 -201 -184 -518q0 -301 174 -498q168 -200 475 -205h2zM733 225q-158 2 -244 135q-90 131 -90 328q0 199 88 332t248 135q164 -4 248 -137q84 -131 84 -324q0 -207 -84 -334
q-86 -133 -248 -135h-2zM625 1712l-209 -258h215l102 135h4l103 -135h217l-211 258h-221z" />
    <glyph glyph-name="degree" unicode="&#xc9;" horiz-adv-x="1094" 
d="M956 838h-508v286h539v256h-850v-1380h879v256h-568v328h508v254zM600 1712l-178 -258h246l256 258h-324z" />
    <glyph glyph-name="brokenbar" unicode="&#xcb;" horiz-adv-x="1094" 
d="M956 838h-508v286h539v256h-850v-1380h879v256h-568v328h508v254zM354 1460q60 0 97 43q34 39 36 94q-2 64 -36 101q-39 39 -97 39q-59 0 -98 -39q-41 -37 -41 -101q0 -55 41 -94q37 -43 96 -43h2zM770 1460q59 0 98 43q35 39 37 94q-2 64 -37 101q-39 39 -98 39t-98 -39
q-41 -37 -41 -101q0 -55 39 -94q39 -43 98 -43h2z" />
    <glyph glyph-name="zcaron" unicode="&#xc1;" horiz-adv-x="1343" 
d="M852 354l106 -354h336l-430 1380h-407l-422 -1380h323l97 354h397zM500 588l84 293q32 131 61 266h6q33 -131 68 -266l86 -293h-305zM711 1712l-179 -258h246l256 258h-323z" />
    <glyph glyph-name="acute" unicode="&#xe7;" horiz-adv-x="924" 
d="M842 254q-72 -33 -181 -33q-116 0 -192 74q-82 72 -82 209q2 127 74 203q69 75 194 77q64 0 107 -8t69 -24l48 233q-105 39 -238 39q-281 -4 -426 -156q-147 -149 -147 -374q6 -424 407 -504l-80 -158q86 -6 125 -24q35 -19 35 -50q0 -28 -23 -41q-22 -12 -51 -12
q-51 2 -110 33l-41 -115q61 -39 164 -41q102 0 176 41q71 39 73 137q-2 66 -43 105q-45 39 -104 45l39 70q162 8 248 45z" />
    <glyph glyph-name="daggerdbl" unicode="&#xac;" horiz-adv-x="1221" 
d="M82 864v-190h858v-457h199v647h-1057z" />
    <glyph glyph-name="Iacute" unicode="&#xc3;" horiz-adv-x="1343" 
d="M854 354l106 -354h336l-430 1380h-409l-422 -1380h323l97 354h399zM500 588l82 293q34 131 65 266h4q33 -131 70 -266l86 -293h-307zM530 1464q9 88 50 88q38 -2 90 -37q53 -36 133 -38q164 -5 162 249h-140q-4 -51 -16 -67q-12 -21 -39 -21q-39 2 -92 39q-53 39 -133 41
q-154 0 -156 -254h141z" />
    <glyph glyph-name="glyph170" unicode="&#xde;" horiz-adv-x="1188" 
d="M135 0h307v272q43 -10 142 -10q227 -2 381 109q155 110 159 360q-2 186 -133 299q-135 113 -379 111q-63 0 -102 -2t-68 -7v248h-307v-1380zM442 893q37 10 135 10q236 -2 240 -196q2 -197 -246 -203q-80 0 -129 12v377z" />
    <glyph glyph-name="glyph171" unicode="&#xbc;" horiz-adv-x="1702" 
d="M1522 0v184h108v152h-108v471h-273l-350 -494v-129h401v-184h222zM1300 336h-180l-4 2l115 168q35 59 73 133h5q-9 -72 -9 -152v-151zM510 545v798h-209l-227 -98l30 -168v0l164 72h2v-604h240zM524 -23l756 1377h-170l-756 -1377h170z" />
    <glyph glyph-name="scaron" unicode="&#xc2;" horiz-adv-x="1343" 
d="M852 354l106 -354h336l-430 1380h-407l-422 -1380h323l97 354h397zM500 588l84 293q32 131 61 266h6q33 -131 68 -266l86 -293h-305zM567 1712l-209 -258h215l103 135h4l102 -135h217l-211 258h-221z" />
    <glyph glyph-name="sterling" unicode="&#xd6;" horiz-adv-x="1468" 
d="M723 -23q657 13 676 727q0 295 -168 494q-166 201 -488 205q-307 -4 -487 -205q-182 -201 -184 -518q0 -301 174 -498q168 -200 475 -205h2zM733 225q-158 2 -244 135q-90 131 -90 328q0 199 88 332q86 133 246 135q164 -4 248 -137q84 -131 84 -324q0 -207 -84 -334
q-86 -133 -246 -135h-2zM530 1460q60 0 97 43q34 39 37 94q-3 64 -37 101q-39 39 -97 39q-59 0 -98 -39q-43 -37 -43 -101q0 -55 41 -94q39 -43 98 -43h2zM944 1460q59 0 98 43q35 39 37 94q-2 64 -37 101q-39 39 -98 39t-98 -39q-41 -37 -41 -101q0 -55 39 -94
q39 -43 98 -43h2z" />
    <glyph glyph-name="glyph174" unicode="&#xbe;" horiz-adv-x="1702" 
d="M131 1139q33 18 82 34q51 17 104 17q109 -2 109 -74q-2 -45 -53 -63q-49 -21 -105 -21h-57v-139h61q72 0 123 -25q51 -24 53 -78q0 -40 -38 -65q-41 -27 -107 -27q-57 0 -111 19q-57 16 -90 35l-47 -160q101 -55 277 -58q170 0 270 70q96 66 98 174q-2 82 -55 131
q-55 47 -143 56v4q75 24 123 71q45 47 45 111q0 88 -74 145q-74 56 -221 58q-189 -4 -287 -66zM590 -23l753 1377h-170l-751 -1377h168zM1540 0v184h109v152h-109v471h-272l-351 -494v-129h402v-184h221zM1319 336h-180l-4 2l114 168q35 59 74 133h4q-8 -72 -8 -152v-151z
" />
    <glyph glyph-name="threesuperior" unicode="&#xdb;" horiz-adv-x="1397" 
d="M135 1380v-770q6 -639 551 -633q567 -2 575 629v774h-311v-792q-2 -363 -254 -361q-248 0 -250 361v792h-311zM610 1712l-209 -258h215l103 135h4l100 -135h217l-209 258h-221z" />
    <glyph glyph-name="onehalf" unicode="&#xd9;" horiz-adv-x="1397" 
d="M135 1380v-770q6 -639 551 -633q567 -2 575 629v774h-311v-792q-2 -363 -254 -361q-248 0 -250 361v792h-311zM352 1714l256 -256h246l-178 256h-324z" />
    <glyph glyph-name="section" unicode="&#xdc;" horiz-adv-x="1397" 
d="M135 1380v-770q6 -639 551 -633q567 -2 575 629v774h-311v-792q-2 -363 -254 -361q-248 0 -250 361v792h-311zM506 1460q59 0 96 43q35 39 37 94q-2 64 -37 101q-39 39 -96 39q-60 0 -98 -39q-43 -37 -43 -101q0 -55 40 -94q39 -43 99 -43h2zM919 1460q60 0 99 43
q35 39 37 94q-2 64 -37 101q-39 39 -99 39q-59 0 -98 -39q-41 -37 -41 -101q0 -55 39 -94q39 -43 98 -43h2z" />
    <glyph glyph-name="eth" unicode="&#xcd;" horiz-adv-x="584" 
d="M137 1380v-1380h311v1380h-311zM324 1712l-179 -258h244l258 258h-323z" />
    <glyph glyph-name="Egrave" unicode="&#xc0;" horiz-adv-x="1343" 
d="M852 354l106 -354h336l-430 1380h-407l-422 -1380h323l97 354h397zM500 588l84 293q32 131 61 266h6q33 -131 68 -266l86 -293h-305zM301 1714l256 -256h246l-178 256h-324z" />
    <glyph glyph-name="oslash" unicode="&#xb0;" horiz-adv-x="729" 
d="M367 1403q-134 -2 -220 -88q-88 -86 -92 -217q0 -125 88 -209q84 -86 222 -88q131 2 221 86q90 82 92 217q-2 125 -84 211q-84 86 -225 88h-2zM369 1259q73 -2 110 -47q37 -47 37 -110q0 -70 -41 -111q-41 -47 -106 -47q-64 0 -105 47q-43 43 -43 109q0 67 41 112
q39 45 105 47h2z" />
    <glyph glyph-name="glyph181" unicode="&#xbd;" horiz-adv-x="1702" 
d="M485 545v798h-209l-227 -98l31 -168v0l164 72h2v-604h239zM477 -23l754 1377h-170l-754 -1377h170zM993 0h631v178h-299v4l49 41q96 72 166 154q68 78 70 184q0 109 -78 178q-80 68 -234 70q-192 -4 -299 -88l62 -156q35 25 82 41q45 17 94 17q59 0 90 -27q31 -29 31 -72
q0 -61 -60 -127q-61 -67 -178 -168l-127 -112v-117z" />
    <glyph glyph-name="glyph182" unicode="&#x2212;" horiz-adv-x="1221" 
d="M82 643v-190h1057v190h-1057z" />
    <glyph glyph-name="glyph183" unicode="&#xdd;" horiz-adv-x="1235" 
d="M766 0v575l455 805h-351l-139 -331q-59 -142 -104 -265h-4q-46 125 -107 265l-139 331h-359l437 -815v-565h311zM680 1712l-178 -258h243l258 258h-323z" />
    <glyph glyph-name="uni00B2" unicode="&#xb2;" horiz-adv-x="770" 
d="M70 545h630v178h-299v4l50 41q96 72 165 154q68 77 70 184q0 108 -78 178q-80 68 -233 70q-193 -4 -299 -88l61 -156q35 25 82 41q45 16 94 16q60 0 90 -26q31 -29 31 -72q0 -61 -59 -127q-62 -68 -178 -168l-127 -113v-116z" />
    <glyph glyph-name="twosuperior" unicode="&#xda;" horiz-adv-x="1397" 
d="M135 1380v-770q6 -639 551 -633q567 -2 575 629v774h-311v-792q-2 -363 -254 -361q-248 0 -250 361v792h-311zM739 1712l-180 -258h246l256 258h-322z" />
    <glyph glyph-name="Delta" unicode="&#xae;" horiz-adv-x="1044" 
d="M524 1403q-194 -2 -323 -133q-135 -131 -138 -328q3 -197 138 -328q129 -133 323 -135q199 2 328 135q129 131 131 328q-2 197 -131 328q-131 131 -326 133h-2zM524 1311q152 -2 250 -107q100 -106 102 -264q-2 -158 -102 -260q-98 -105 -250 -109q-147 2 -248 109
q-100 102 -102 260q2 158 102 264q99 105 246 107h2zM444 885h50q83 0 96 -78q8 -53 16 -84q6 -33 14 -49h113q-12 16 -29 127q-12 112 -81 125v4q43 12 71 43q27 30 27 76q0 77 -45 110q-47 41 -176 41q-58 0 -95 -4q-38 -4 -69 -10v-512h108v211zM444 1116q21 2 60 2
q55 0 82 -20q22 -21 22 -56q-2 -39 -31 -55q-30 -18 -81 -18h-52v147z" />
    <glyph glyph-name="guillemotleft" unicode="&#xa9;" horiz-adv-x="1386" 
d="M696 1327q-268 -4 -444 -184q-182 -178 -186 -447q4 -270 186 -448q176 -182 444 -187q269 5 445 187q176 178 180 448q-4 269 -180 447q-174 180 -443 184h-2zM696 1210q211 -4 350 -149q140 -146 142 -367q-2 -221 -142 -364q-139 -146 -350 -152q-211 2 -348 152
q-143 143 -145 364q2 221 145 367q137 145 346 149h2zM971 1008q-21 22 -84 41q-64 16 -144 16q-159 0 -272 -100q-121 -101 -123 -281q0 -160 100 -262q97 -107 277 -109q65 0 133 17q68 16 121 49l-31 106q-74 -51 -205 -51q-112 2 -180 74q-72 69 -72 182q5 250 252 254
q72 0 125 -16q54 -17 72 -31z" />
    <glyph glyph-name="Zcaron" unicode="&#xca;" horiz-adv-x="1094" 
d="M956 838h-508v286h539v256h-850v-1380h879v256h-568v328h508v254zM461 1712l-207 -258h215l100 135h4l103 -135h217l-211 258h-221z" />
    <glyph glyph-name="guillemotright" unicode="&#x2122;" horiz-adv-x="1775" 
d="M33 1380v-164h225v-649h199v649h229v164h-653zM1685 567l-53 813h-256l-98 -315q-33 -109 -66 -236h-4q-28 123 -57 234l-90 317h-273l-55 -813h180l21 391q4 125 6 273h4q37 -146 66 -271l104 -378h154l118 372q39 131 76 277h4q4 -156 6 -277l19 -387h194z" />
    <glyph glyph-name="oe" unicode="&#xb1;" horiz-adv-x="1221" 
d="M510 1186v-355h-428v-190h428v-362h201v362h428v190h-428v355h-201zM82 190v-190h1057v190h-1057z" />
    <glyph glyph-name="glyph191" unicode="&#xd0;" horiz-adv-x="1442" 
d="M6 582h146v-582q112 -16 354 -18q411 0 637 180q219 166 227 563q-4 367 -233 528q-185 146 -566 144q-239 0 -419 -31v-541h-146v-243zM737 825h-274v320q39 10 141 12q428 2 436 -442q-10 -494 -469 -490q-61 -2 -108 6v351h274v243z" />
    <glyph glyph-name="ucircumflex" unicode="&#xc4;" horiz-adv-x="1343" 
d="M852 354l106 -354h336l-430 1380h-405l-422 -1380h321l99 354h395zM502 588l82 293q32 131 63 266h4q33 -131 70 -266l84 -293h-303zM473 1460q59 0 96 43q35 39 37 94q-2 64 -37 101q-39 39 -96 39q-59 0 -98 -39q-43 -37 -43 -101q0 -55 41 -94q39 -43 98 -43h2z
M887 1460q59 0 98 43q35 39 37 94q-2 64 -37 101q-39 39 -98 39q-60 0 -99 -39q-41 -37 -41 -101q0 -55 39 -94q39 -43 99 -43h2z" />
    <glyph glyph-name="udieresis" unicode="&#xc5;" horiz-adv-x="1343" 
d="M858 354l107 -354h337l-432 1384q70 45 72 144q0 94 -63 155q-68 58 -205 60q-129 -2 -199 -64q-70 -63 -70 -153q3 -97 62 -138l-424 -1388h324l96 354h395zM672 1638q53 0 80 -28q26 -31 26 -78q0 -49 -26 -78q-27 -31 -80 -31q-45 0 -74 33q-29 29 -29 74q0 47 27 80
q24 28 74 28h2zM506 588l86 309q33 125 59 250h4q33 -131 68 -256l88 -303h-305z" />
    <glyph glyph-name="tilde" unicode="&#x178;" horiz-adv-x="1235" 
d="M766 0v575l455 805h-351l-139 -331q-59 -142 -104 -265h-4q-46 125 -107 265l-139 331h-359l437 -815v-565h311zM428 1460q59 0 96 43q35 39 37 94q-2 64 -37 101q-39 39 -96 39q-59 0 -98 -39q-43 -37 -43 -101q0 -55 41 -94q39 -43 98 -43h2zM844 1460q59 0 98 43
q35 39 37 94q-2 64 -37 101q-39 39 -98 39q-60 0 -99 -39q-41 -37 -41 -101q0 -55 39 -94q39 -43 99 -43h2z" />
    <glyph glyph-name="Ugrave" unicode="&#xf7;" horiz-adv-x="1221" 
d="M610 754q70 0 111 43q39 41 39 108q-8 148 -150 152q-65 0 -106 -39q-43 -41 -43 -113q0 -67 43 -108q39 -43 104 -43h2zM1137 451v190h-1057v-190h1057zM608 35q70 0 111 43q39 41 39 108q-8 148 -150 152q-65 0 -106 -39q-43 -41 -43 -113q0 -67 43 -108
q39 -43 104 -43h2z" />
    <glyph glyph-name="uni00B9" unicode="&#xb9;" horiz-adv-x="752" 
d="M545 545v798h-209l-227 -98l30 -168v0l164 72h2v-604h240z" />
    <glyph glyph-name="uni00B3" unicode="&#xb3;" horiz-adv-x="764" 
d="M135 1139q33 18 82 34q51 17 105 17q108 -2 108 -74q-2 -45 -53 -63q-49 -21 -105 -21h-57v-139h61q72 0 123 -25q52 -24 54 -78q0 -40 -39 -65q-41 -27 -107 -27q-57 0 -110 21q-58 16 -91 33l-47 -160q101 -55 277 -58q170 0 270 70q96 66 98 174q-2 82 -55 131
q-55 47 -143 56v4q76 24 123 71q45 47 45 111q0 88 -74 145q-74 56 -221 58q-189 -4 -287 -66z" />
    <glyph glyph-name="Eth" unicode="&#xc8;" horiz-adv-x="1094" 
d="M956 838h-508v286h539v256h-850v-1380h879v256h-568v328h508v254zM227 1712l256 -254h246l-178 254h-324z" />
    <glyph glyph-name="yacute" unicode="&#xcf;" horiz-adv-x="584" 
d="M137 1380v-1380h311v1380h-311zM86 1460q59 0 98 43q35 39 37 94q0 64 -39 101q-39 39 -96 39q-59 0 -98 -39q-41 -37 -43 -101q2 -55 41 -94q39 -43 98 -43h2zM502 1460q59 0 98 43q35 39 37 94q-2 64 -37 101q-39 39 -98 39q-60 0 -99 -39q-38 -37 -38 -101
q0 -55 38 -94q37 -43 97 -43h2z" />
    <glyph glyph-name="glyph200" unicode="&#x160;" horiz-adv-x="1106" 
d="M145 319l-63 -256q135 -79 391 -86q285 3 422 129q133 123 133 299q2 287 -356 414q-133 51 -195 94q-61 41 -61 103q0 55 51 94q49 39 149 39q54 0 97 -4q43 -6 80 -17q71 -22 110 -45l70 248q-60 31 -146 53q-88 19 -207 19q-243 -2 -380 -117q-140 -115 -142 -297
q0 -149 107 -250q100 -100 274 -162q125 -40 178 -83q54 -46 54 -109q-2 -149 -220 -152q-210 5 -346 86v0zM692 1454l207 258h-213l-104 -137h-5l-106 137h-211l207 -258h225z" />
    <glyph glyph-name="Yacute" unicode="&#xce;" horiz-adv-x="584" 
d="M137 1380v-1380h311v1380h-311zM182 1712l-207 -258h213l103 135h4l102 -135h215l-209 258h-221z" />
    <glyph glyph-name="circumflex" unicode="&#xff;" horiz-adv-x="1071" 
d="M12 1001l369 -915q12 -37 12 -51q0 -21 -16 -45q-51 -80 -129 -125q-74 -41 -135 -53l65 -263q64 7 141 39q78 29 160 99q84 71 166 219q82 145 186 436l234 659h-334l-123 -491q-22 -96 -45 -186h-6q-20 88 -49 186l-150 491h-346zM361 1120q60 0 99 43q34 39 37 96
q-3 64 -37 101q-39 39 -99 39q-59 0 -98 -39q-41 -37 -43 -101q2 -57 41 -96q39 -43 98 -43h2zM777 1120q64 0 100 43q35 39 37 96q-2 64 -37 101q-36 39 -100 39q-59 0 -98 -39q-41 -37 -41 -101q0 -57 39 -96q39 -43 98 -43h2z" />
    <glyph glyph-name="glyph203" unicode="&#xfd;" horiz-adv-x="1071" 
d="M12 1001l369 -915q12 -37 12 -51q0 -21 -16 -45q-51 -80 -129 -125q-74 -41 -135 -53l65 -263q64 7 141 39q78 29 160 99q84 71 166 219q82 145 186 436l234 659h-334l-123 -491q-22 -96 -45 -186h-6q-20 88 -49 186l-150 491h-346zM623 1433l-176 -311h213l249 311h-286
z" />
    <glyph glyph-name="ordfeminine" unicode="&#xf9;" horiz-adv-x="1194" 
d="M1069 1001h-311v-596q0 -38 -13 -67q-12 -39 -51 -72q-39 -35 -104 -37q-160 4 -158 234v538h-311v-587q10 -443 352 -437q135 5 211 60q39 24 66 53q24 29 36 51h7l14 -141h270q-8 125 -8 322v679zM266 1433l250 -311h213l-176 311h-287z" />
    <glyph glyph-name="Omega" unicode="&#xfc;" horiz-adv-x="1194" 
d="M1069 1001h-311v-596q0 -38 -13 -67q-12 -39 -51 -72q-39 -35 -104 -37q-160 4 -158 234v538h-311v-587q10 -443 352 -437q135 5 211 60q39 24 66 53q24 29 36 51h7l14 -141h270q-8 125 -8 322v679zM401 1120q60 0 99 43q34 39 37 96q-3 64 -37 101q-39 39 -99 39
q-59 0 -98 -39q-41 -37 -43 -101q2 -57 41 -96q39 -43 98 -43h2zM817 1120q64 0 100 43q35 39 37 96q-2 64 -37 101q-36 39 -100 39q-59 0 -98 -39q-41 -37 -41 -101q0 -57 39 -96q39 -43 98 -43h2z" />
    <glyph glyph-name="ordmasculine" unicode="&#xfb;" horiz-adv-x="1194" 
d="M1069 1001h-311v-596q0 -38 -13 -67q-12 -39 -51 -72q-39 -35 -104 -37q-160 4 -158 234v538h-311v-587q10 -443 352 -437q135 5 211 60q39 24 66 53q24 29 36 51h7l14 -141h270q-8 125 -8 322v679zM505 1433l-203 -311h197l102 176h4l103 -176h196l-203 311h-196z" />
    <glyph glyph-name="integral" unicode="&#xfa;" horiz-adv-x="1194" 
d="M1069 1001h-311v-596q0 -38 -13 -67q-12 -39 -51 -72q-39 -35 -104 -37q-160 4 -158 234v538h-311v-587q10 -443 352 -437q135 5 211 60q39 24 66 53q24 29 36 51h7l14 -141h270q-8 125 -8 322v679zM658 1433l-176 -311h213l249 311h-286z" />
    <glyph glyph-name="glyph208" unicode="&#x161;" horiz-adv-x="889" 
d="M123 270l-55 -221q120 -67 323 -72q215 3 326 95q106 88 106 231q6 215 -270 307q-90 33 -125 58q-39 24 -37 59q0 78 119 80q65 -2 125 -19q57 -16 92 -36l53 213q-98 55 -280 59q-187 -2 -295 -92q-113 -92 -113 -238q0 -88 66 -166q65 -80 221 -133q43 -12 74 -24
q28 -15 43 -27q28 -27 28 -65q2 -82 -133 -82q-72 0 -145 24q-76 23 -123 49v0zM559 1122l202 311h-200l-105 -180h-4l-104 180h-201l203 -311h209z" />
    <glyph glyph-name="pi" unicode="&#xf5;" horiz-adv-x="1182" 
d="M588 -23q209 0 364 132q158 129 162 401q-2 231 -139 373q-137 139 -371 141q-246 -2 -389 -143q-145 -142 -147 -387q2 -244 151 -379q143 -135 367 -138h2zM590 201q-99 0 -150 88q-53 82 -53 211q0 118 47 209q49 90 158 92q106 -2 153 -92q45 -91 45 -207
q0 -135 -51 -217q-53 -84 -147 -84h-2zM455 1139q8 92 49 92q31 0 80 -31q59 -45 143 -47q162 -4 160 250h-135q-2 -51 -15 -70q-14 -20 -41 -20q-38 2 -88 39q-26 16 -59 30q-33 13 -76 13q-157 -5 -157 -256h139z" />
    <glyph glyph-name="partialdiff" unicode="&#xf2;" horiz-adv-x="1182" 
d="M588 -23q209 0 364 132q158 129 162 401q-2 231 -139 373q-137 139 -371 141q-246 -2 -389 -143q-145 -142 -147 -387q2 -244 151 -379q143 -135 367 -138h2zM590 201q-99 0 -150 88q-53 82 -53 211q0 118 47 209q49 90 158 92q106 -2 153 -92q45 -91 45 -207
q0 -135 -51 -217q-53 -84 -147 -84h-2zM280 1433l250 -311h213l-176 311h-287z" />
    <glyph glyph-name="product" unicode="&#xf6;" horiz-adv-x="1182" 
d="M588 -23q209 0 364 132q158 129 162 401q-2 231 -139 373q-137 139 -371 141q-246 -2 -389 -143q-145 -142 -147 -387q2 -244 151 -379q143 -135 367 -138h2zM590 201q-99 0 -150 88q-53 82 -53 211q0 118 47 209q49 90 158 92q106 -2 153 -92q45 -91 45 -207
q0 -135 -51 -217q-53 -84 -147 -84h-2zM390 1120q60 0 99 43q34 39 37 96q-3 64 -37 101q-39 39 -99 39q-59 0 -98 -39q-41 -37 -43 -101q2 -57 41 -96q39 -43 98 -43h2zM806 1120q64 0 100 43q35 39 37 96q-2 64 -37 101q-36 39 -100 39q-59 0 -98 -39q-41 -37 -41 -101
q0 -57 39 -96q39 -43 98 -43h2z" />
    <glyph glyph-name="summation" unicode="&#xf4;" horiz-adv-x="1182" 
d="M588 -23q209 0 364 132q158 129 162 401q-2 231 -139 373q-137 139 -371 141q-246 -2 -389 -143q-145 -142 -147 -387q2 -244 151 -379q143 -135 367 -138h2zM590 201q-99 0 -150 88q-53 82 -53 211q0 118 47 209q49 90 158 92q106 -2 153 -92q45 -91 45 -207
q0 -135 -51 -217q-53 -84 -147 -84h-2zM501 1433l-203 -311h197l102 176h4l103 -176h196l-203 311h-196z" />
    <glyph glyph-name="mu" unicode="&#xf3;" horiz-adv-x="1182" 
d="M588 -23q209 0 364 132q158 129 162 401q-2 231 -139 373q-137 139 -371 141q-246 -2 -389 -143q-145 -142 -147 -387q2 -244 151 -379q143 -135 367 -138h2zM590 201q-99 0 -150 88q-53 82 -53 211q0 118 47 209q49 90 158 92q106 -2 153 -92q45 -91 45 -207
q0 -135 -51 -217q-53 -84 -147 -84h-2zM643 1433l-176 -311h213l249 311h-286z" />
    <glyph glyph-name="yen" unicode="&#xf1;" horiz-adv-x="1200" 
d="M125 0h311v577q0 46 10 78q19 45 58 82q39 33 102 35q84 0 123 -57q35 -60 35 -160v-555h311v592q-2 221 -100 327q-101 105 -258 105q-125 -2 -201 -55q-78 -54 -108 -107h-7l-14 139h-270q8 -133 8 -319v-682zM466 1139q8 92 49 92q31 0 80 -31q59 -45 143 -47
q162 -4 160 250h-135q-2 -51 -15 -70q-14 -20 -41 -20q-38 2 -88 39q-26 16 -59 30q-33 13 -76 13q-157 -5 -157 -256h139z" />
    <glyph glyph-name="plusminus" unicode="&#xec;" horiz-adv-x="561" 
d="M436 0v1001h-311v-1001h311zM-68 1433l250 -311h213l-176 311h-287z" />
    <glyph glyph-name="greaterequal" unicode="&#xef;" horiz-adv-x="561" 
d="M436 0v1001h-311v-1001h311zM69 1120q60 0 99 43q34 39 37 96q-3 64 -37 101q-39 39 -99 39q-59 0 -98 -39q-41 -37 -43 -101q2 -57 41 -96q39 -43 98 -43h2zM485 1120q64 0 100 43q35 39 37 96q-2 64 -37 101q-36 39 -100 39q-59 0 -98 -39q-41 -37 -41 -101
q0 -57 39 -96q39 -43 98 -43h2z" />
    <glyph glyph-name="lessequal" unicode="&#xee;" horiz-adv-x="561" 
d="M436 0v1001h-311v-1001h311zM179 1433l-203 -311h197l102 176h4l103 -176h196l-203 311h-196z" />
    <glyph glyph-name="infinity" unicode="&#xed;" horiz-adv-x="561" 
d="M436 0v1001h-311v-1001h311zM329 1433l-176 -311h213l249 311h-286z" />
    <glyph glyph-name="notequal" unicode="&#xe8;" horiz-adv-x="1081" 
d="M1010 401q8 41 10 125q0 195 -101 344q-104 152 -346 156q-258 -6 -381 -170q-124 -164 -124 -365q6 -501 534 -511q207 0 363 63l-41 211q-121 -43 -277 -43q-110 0 -190 49q-80 45 -92 143zM362 616q7 68 52 134q45 67 143 69q55 0 90 -18q33 -23 51 -54q19 -30 27 -65
q6 -37 6 -66h-369zM251 1433l250 -311h213l-176 311h-287z" />
    <glyph glyph-name="Oslash" unicode="&#xeb;" horiz-adv-x="1081" 
d="M1010 401q8 41 10 125q0 195 -101 344q-104 152 -346 156q-258 -6 -381 -170q-124 -164 -124 -365q6 -501 534 -511q207 0 363 63l-41 211q-121 -43 -277 -43q-110 0 -190 49q-80 45 -92 143zM362 616q7 68 52 134q45 67 143 69q55 0 90 -18q33 -23 51 -54q19 -30 27 -65
q6 -37 6 -66h-369zM374 1120q60 0 99 43q34 39 37 96q-3 64 -37 101q-39 39 -99 39q-59 0 -98 -39q-41 -37 -43 -101q2 -57 41 -96q39 -43 98 -43h2zM790 1120q64 0 100 43q35 39 37 96q-2 64 -37 101q-36 39 -100 39q-59 0 -98 -39q-41 -37 -41 -101q0 -57 39 -96
q39 -43 98 -43h2z" />
    <glyph glyph-name="AE" unicode="&#xea;" horiz-adv-x="1081" 
d="M1010 401q8 41 10 125q0 195 -101 344q-104 152 -346 156q-258 -6 -381 -170q-124 -164 -124 -365q6 -501 534 -511q207 0 363 63l-41 211q-121 -43 -277 -43q-110 0 -190 49q-80 45 -92 143zM362 616q7 68 52 134q45 67 143 69q55 0 90 -18q33 -23 51 -54q19 -30 27 -65
q6 -37 6 -66h-369zM473 1433l-203 -311h197l102 176h4l103 -176h196l-203 311h-196z" />
    <glyph glyph-name="dieresis" unicode="&#xe9;" horiz-adv-x="1081" 
d="M1010 401q8 41 10 125q0 195 -101 344q-104 152 -346 156q-258 -6 -381 -170q-124 -164 -124 -365q6 -501 534 -511q207 0 363 63l-41 211q-121 -43 -277 -43q-110 0 -190 49q-80 45 -92 143zM362 616q7 68 52 134q45 67 143 69q55 0 90 -18q33 -23 51 -54q19 -30 27 -65
q6 -37 6 -66h-369zM629 1433l-176 -311h213l249 311h-286z" />
    <glyph glyph-name="copyright" unicode="&#xe3;" horiz-adv-x="1081" 
d="M958 592q2 184 -92 305q-98 125 -346 127q-67 0 -125 -6q-61 -10 -110 -23q-101 -28 -154 -61l57 -199v0q111 70 277 74q57 0 94 -10q37 -13 55 -33q35 -43 33 -86v-12q-268 0 -426 -93q-160 -94 -162 -290q0 -123 88 -213q84 -92 236 -95q184 3 287 123h6l18 -100h281
q-17 92 -17 242v350zM657 365q0 -29 -6 -54q-16 -47 -59 -80q-43 -34 -103 -34q-53 0 -86 30q-36 31 -36 88q2 88 86 125q79 33 204 33v-108zM381 1139q8 92 49 92q31 0 80 -31q59 -45 143 -47q162 -4 160 250h-135q-2 -51 -15 -70q-14 -20 -41 -20q-38 2 -88 39
q-26 16 -59 30q-33 13 -76 13q-157 -5 -157 -256h139z" />
    <glyph glyph-name="trademark" unicode="&#xe5;" horiz-adv-x="1081" 
d="M958 592q2 184 -92 305q-98 125 -346 127q-67 0 -125 -6q-61 -10 -110 -23q-101 -28 -154 -61l57 -199v0q111 70 277 74q57 0 94 -10q37 -13 55 -33q35 -43 33 -86v-12q-268 0 -426 -93q-160 -94 -162 -290q0 -123 88 -213q84 -92 236 -95q184 3 287 123h6l18 -100h281
q-17 92 -17 242v350zM657 365q0 -29 -6 -54q-16 -47 -59 -80q-43 -34 -103 -34q-53 0 -86 30q-36 31 -36 88q2 88 86 125q79 33 204 33v-108zM553 1505q-113 -2 -172 -59q-64 -58 -64 -146q0 -84 64 -139q63 -59 172 -59q108 0 170 59q59 53 61 141q0 88 -57 146
q-58 57 -172 57h-2zM553 1403q45 -2 69 -31q23 -29 23 -70t-23 -67q-24 -31 -71 -31q-43 0 -66 31q-25 31 -25 65q0 43 25 72q23 29 66 31h2z" />
    <glyph glyph-name="paragraph" unicode="&#xe0;" horiz-adv-x="1081" 
d="M958 592q2 184 -92 305q-98 125 -346 127q-67 0 -125 -6q-61 -10 -110 -23q-101 -28 -154 -61l57 -199v0q111 70 277 74q57 0 94 -10q37 -13 55 -33q35 -43 33 -86v-12q-268 0 -426 -93q-160 -94 -162 -290q0 -123 88 -213q84 -92 236 -95q184 3 287 123h6l18 -100h281
q-17 92 -17 242v350zM657 365q0 -29 -6 -54q-16 -47 -59 -80q-43 -34 -103 -34q-53 0 -86 30q-36 31 -36 88q2 88 86 125q79 33 204 33v-108zM208 1433l250 -311h213l-176 311h-287z" />
    <glyph glyph-name="registered" unicode="&#xe4;" horiz-adv-x="1081" 
d="M958 592q2 184 -92 305q-98 125 -346 127q-67 0 -125 -6q-61 -10 -110 -23q-101 -28 -154 -61l57 -199v0q111 70 277 74q57 0 94 -10q37 -13 55 -33q35 -43 33 -86v-12q-268 0 -426 -93q-160 -94 -162 -290q0 -123 88 -213q84 -92 236 -95q184 3 287 123h6l18 -100h281
q-17 92 -17 242v350zM657 365q0 -29 -6 -54q-16 -47 -59 -80q-43 -34 -103 -34q-53 0 -86 30q-36 31 -36 88q2 88 86 125q79 33 204 33v-108zM337 1120q60 0 99 43q34 39 37 96q-3 64 -37 101q-39 39 -99 39q-59 0 -98 -39q-41 -37 -43 -101q2 -57 41 -96q39 -43 98 -43h2z
M753 1120q64 0 100 43q35 39 37 96q-2 64 -37 101q-36 39 -100 39q-59 0 -98 -39q-41 -37 -41 -101q0 -57 39 -96q39 -43 98 -43h2z" />
    <glyph glyph-name="germandbls" unicode="&#xe2;" horiz-adv-x="1081" 
d="M958 592q2 184 -92 305q-98 125 -346 127q-67 0 -125 -6q-61 -10 -110 -23q-101 -28 -154 -61l57 -199v0q111 70 277 74q57 0 94 -10q37 -13 55 -33q35 -43 33 -86v-12q-268 0 -426 -93q-160 -94 -162 -290q0 -123 88 -213q84 -92 236 -95q184 3 287 123h6l18 -100h281
q-17 92 -17 242v350zM657 365q0 -29 -6 -54q-16 -47 -59 -80q-43 -34 -103 -34q-53 0 -86 30q-36 31 -36 88q2 88 86 125q79 33 204 33v-108zM439 1433l-203 -311h197l102 176h4l103 -176h196l-203 311h-196z" />
    <glyph glyph-name="bullet" unicode="&#xe1;" horiz-adv-x="1081" 
d="M958 592q2 184 -92 305q-98 125 -346 127q-67 0 -125 -6q-61 -10 -110 -23q-101 -28 -154 -61l57 -199v0q111 70 277 74q57 0 94 -10q37 -13 55 -33q35 -43 33 -86v-12q-268 0 -426 -93q-160 -94 -162 -290q0 -123 88 -213q84 -92 236 -95q184 3 287 123h6l18 -100h281
q-17 92 -17 242v350zM657 365q0 -29 -6 -54q-16 -47 -59 -80q-43 -34 -103 -34q-53 0 -86 30q-36 31 -36 88q2 88 86 125q79 33 204 33v-108zM586 1433l-176 -311h213l249 311h-286z" />
    </font>
</defs>
</svg>
